<?xml version="1.0" encoding="utf-8"?>
<!-- Generator: Adobe Illustrator 27.5.0, SVG Export Plug-In . SVG Version: 6.00 Build 0)  -->
<svg version="1.1" xmlns="http://www.w3.org/2000/svg" xmlns:xlink="http://www.w3.org/1999/xlink" x="0px" y="0px"
	 viewBox="0 0 500 500" style="enable-background:new 0 0 500 500;" xml:space="preserve">
<g id="BACKGROUND">
	<path style="fill:#E3F3EF;" d="M412.975,432.417c-14.751,11.474-32.15,15.425-50.398,16.63
		c-18.863,1.245-37.306,6.062-56.663,6.282c-63.966,0.728-127.375-10.701-190.323-22.09c-14.233-2.575-28.74-5.244-41.462-12.129
		c-11.159-6.032-24.902-15.384-31.473-26.608c-6.201-10.593-7.329-29.621-4.663-41.487c5.02-22.344,26.507-37.177,35.644-58.176
		c10.15-23.328,0.39-41.798-8.257-63.383c-9.082-22.674-7.284-51.264,14.477-66.197c12.203-8.374,27.209-12.329,38.205-22.513
		c11.603-10.746,17.963-27.073,26.78-40.049c14.501-21.341,40.955-38.814,67.637-30.07c26.725,8.758,42.229,40.854,70.02,45.17
		c28.891,4.487,57.661-23.742,85.02-13.431c6.083,2.292,11.036,5.278,13.166,11.453c2.485,7.203,3.13,14.912,5.833,22.069
		c4.688,12.415,14.369,22.258,24.544,30.777c10.175,8.519,21.184,16.193,29.932,26.173c8.747,9.98,15.169,22.933,13.83,36.136
		c-1.216,11.988-8.49,22.34-13.633,33.237c-8.096,17.152-3.541,28.784,3.372,45.032c9.118,21.432,10.752,45.762,5.482,68.384
		c-2.655,11.4-7.025,22.68-13.296,32.596C431.295,418.848,420.959,426.206,412.975,432.417z"/>
	<rect y="409.431" style="fill:#FFFFFF;" width="500" height="90.569"/>
	<path style="fill:none;stroke:#E3F3EF;stroke-width:2;stroke-miterlimit:10;" d="M123.778,137.395
		c-10.418,12.089-26.331,17.593-41.373,22.931c-25.145,8.922-36.537,40.806-28.13,65.027c4.138,11.921,11.704,22.709,17.247,33.995
		c6.925,14.099,11.956,30.256,7.82,45.41"/>
	<path style="fill:none;stroke:#E3F3EF;stroke-width:2;stroke-miterlimit:10;" d="M449.617,224.745
		c2.497-4.984,2.195-11.018,0.314-16.266c-1.881-5.247-5.199-9.846-8.648-14.225c-5.612-7.122-11.689-13.877-18.182-20.206
		c-11.037-10.76-20.159-23.286-26.945-37.128c-6.134-12.512-7.491-32.142-21.02-38.788c-27.833-13.671-52.061,10.563-77.161,18.262
		c-13.364,4.099-27.961,4.805-41.694,2.326"/>
</g>
<g id="OBJECTS">
	<g>
		<path style="fill:#D99D81;" d="M363.245,326.949c-0.407-0.84-1.591-4.318-3.099-3.3c-0.422,0.285-0.433,0.891-0.389,1.398
			c0.238,2.722,0.849,5.399,1.658,8.006c0.765,2.466,1.519,5.006,2.533,7.382c0.683,1.6,1.505,2.725,3.404,2.738
			c2.579,0.017,5.235-0.303,7.594-1.376c0.933-0.424,1.79-0.995,2.637-1.573c0.461-0.315,0.929-0.641,1.267-1.086
			c0.338-0.445,0.53-1.037,0.368-1.572c-0.193-0.637-0.844-1.047-1.501-1.152c-0.657-0.105-1.325,0.036-1.975,0.177
			c-2.008,0.435-4.016,0.871-6.023,1.306c-1.592,0.345-1.81-0.847-2.336-2.058C366.088,332.855,364.676,329.904,363.245,326.949z"/>
		<path style="fill:#D99D81;" d="M361.569,321.889c0.228-0.994,0.585-1.287,0.029-2.249c-0.852-1.473-1.607-3.002-2.26-4.574
			c-0.045-0.109-0.094-0.224-0.184-0.3c-0.091-0.077-0.237-0.101-0.325-0.021c-0.065,0.059-0.079,0.154-0.088,0.241
			c-0.108,1.024-0.043,2.066,0.189,3.069c0.19,0.821,0.823,1.522,0.45,2.389c-0.364,0.846-0.844,1.56-0.609,2.545
			c0.113,0.475,0.356,0.906,0.596,1.331c0.298,0.528,0.597,1.055,0.895,1.583c0.077,0.136,0.182,0.29,0.338,0.294
			c0.103,0.003,0.194-0.064,0.276-0.127c0.232-0.181,0.461-0.365,0.687-0.552c0.059-0.049,0.119-0.1,0.156-0.167
			c0.049-0.087,0.053-0.191,0.054-0.291C361.786,324.023,361.335,322.908,361.569,321.889z"/>
		<path style="fill:#1F143F;" d="M374.06,409.222c-0.192,0.015-0.389,0.027-0.563,0.108c-0.174,0.082-0.322,0.251-0.316,0.444
			c0.003,0.108,0.054,0.211,0.12,0.297c0.347,0.455,1.009,0.481,1.58,0.466c2.111-0.054,4.223-0.109,6.334-0.163
			c0.095-0.003,0.193-0.005,0.279-0.044c0.096-0.043,0.169-0.126,0.229-0.212c0.435-0.621,0.374-1.459,0.193-2.195
			c-0.181-0.736-0.465-1.468-0.416-2.224c0.017-0.267,0.059-0.582-0.142-0.759c-0.092-0.08-0.215-0.111-0.334-0.137
			c-0.671-0.144-1.359-0.208-2.045-0.189c0.077,0,0.044,2.163-0.025,2.373C378.336,408.859,375.712,409.095,374.06,409.222z"/>
		<path style="fill:#1F143F;" d="M389.943,409.02c-0.192,0.015-0.389,0.027-0.563,0.108c-0.174,0.082-0.322,0.251-0.316,0.443
			c0.003,0.108,0.054,0.211,0.12,0.297c0.346,0.455,1.009,0.481,1.58,0.466c2.111-0.054,4.223-0.109,6.334-0.163
			c0.095-0.002,0.193-0.006,0.279-0.044c0.096-0.043,0.169-0.126,0.229-0.212c0.704-1.004-0.009-2.551-0.292-3.624
			c-0.05-0.188-0.618-2.549-0.809-2.498c-0.839,0.229-1.673,0.475-2.502,0.738c-0.067,0.021-0.138,0.045-0.183,0.099
			c-0.089,0.105-0.041,0.266,0.016,0.392c0.211,0.473,0.474,0.934,0.561,1.445C394.78,408.732,391.428,408.906,389.943,409.02z"/>
		<path style="fill:#D99D81;" d="M380.265,332.69c0.005,0.112,0.014,0.231,0.085,0.318c0.098,0.121,0.275,0.132,0.43,0.127
			c0.615,0,1.363-0.149,1.906-0.446c0.531-0.29,1.06-0.463,1.647-0.647c0.088-0.027,0.181-0.059,0.235-0.133
			c0.051-0.07,0.055-0.163,0.058-0.25c0.047-1.816,0.09-3.664-0.396-5.415c-0.946-0.022-2.277-0.144-3.148,0.267
			c-1.068,0.504-0.817,1.525-0.792,2.488C380.324,330.229,380.204,331.459,380.265,332.69z"/>
		<path style="fill:#006178;" d="M389.077,363.617c-0.036,2.553-0.116,5.124,0.055,7.657c0.485,7.179,2.799,13.955,4.965,20.785
			c0.433,1.366,0.866,2.732,1.299,4.098c0.807,2.547,1.617,5.104,2.06,7.739c-1.301,0.876-2.64,1.695-4.013,2.454
			c-0.086,0.047-0.184,0.096-0.278,0.069c-0.097-0.028-0.155-0.125-0.202-0.214c-0.962-1.803-1.926-3.612-2.639-5.527
			c-0.445-1.194-0.789-2.423-1.181-3.635c-0.967-2.996-2.283-5.85-3.489-8.753c-2.067-4.976-3.888-10.057-5.481-15.204
			c-1.141-3.665-2.141-7.327-2.848-11.102c-0.297-1.798-0.583-3.864-0.223-5.677c0.068-0.345,0.175-0.681,0.336-0.994
			c0.503-0.983,1.498-1.642,2.55-1.976c4.551-1.442,8.641,2.726,9.052,7.042c0.053,0.555,0.052,1.113,0.05,1.671
			C389.09,362.572,389.084,363.094,389.077,363.617z"/>
		<path style="fill:#006178;" d="M376.453,358.391c-0.18,0.93-0.243,1.878-0.307,2.823c-0.587,8.721,0.302,17.455,0.898,26.15
			c0.425,6.186,0.908,12.369,1.261,18.56c1.421,0.019,2.842,0.037,4.263,0.056c0.377,0.005,0.85-5.679,0.892-6.237
			c0.158-2.112,0.187-4.227,0.296-6.344c0-3.37,0.352-6.776,0.521-10.142c0.2-3.99,0.432-8.015,0.91-11.977
			c0.286-2.372,0.637-4.737,0.907-7.111c0.248-2.177,0.844-4.755-0.137-6.813c-0.522-1.096-1.482-1.975-2.619-2.4
			c-1.045-0.39-2.188-0.399-3.303-0.377c-0.598,0.012-1.208,0.033-1.768,0.245C376.875,355.349,376.7,357.113,376.453,358.391z"/>
		<path style="fill:#FAB594;" d="M383.8,326.289c1.847-1.798,3.422-4.103,3.504-6.68c0.044-1.385-0.422-2.867-1.539-3.686
			c-0.902-0.661-1.996-0.98-3.111-0.858c-1.087,0.118-2.017,0.672-2.981,1.124c-1.843,0.864-3.115,2.868-3.102,4.903
			c0.006,0.839,0.189,1.757-0.271,2.459c-0.12,0.183-0.279,0.34-0.382,0.533c-0.104,0.193-0.142,0.445-0.014,0.622
			c0.101,0.14,0.276,0.199,0.428,0.282c0.323,0.176,0.276,0.491,0.332,0.81C377.404,330.043,381.481,328.546,383.8,326.289z"/>
		<path style="fill:#69499C;" d="M375.444,338.725c1.658-3.502,3.891-8.509,8.742-7.119c1.841,0.528,3.132,2.268,3.657,4.11
			c0.524,1.842,0.412,3.798,0.295,5.709c-0.089,1.455-0.263,2.904-0.331,4.36c-0.085,1.821,0.228,3.566,0.495,5.362
			c0.204,1.367,0.423,2.733,0.596,4.105c0.086,0.687,0.161,1.376,0.216,2.066c0.045,0.569,0.242,1.363-0.198,1.83
			c-0.232,0.246-0.596,0.305-0.933,0.341c-1.395,0.15-2.801,0.16-4.204,0.159c-2.696-0.002-5.491-0.067-7.924-1.229
			c-0.544-0.26-0.72-0.595-0.676-1.198c0.15-2.046,0.677-4.003,1.149-5.99c0.431-1.81,0.923-3.914,0.092-5.691
			c-0.355-0.758-1.06-1.3-1.462-2.034C374.158,342.045,374.731,340.23,375.444,338.725z"/>
		<path style="fill:#FAB594;" d="M362.086,312.975c0.247-0.99,0.611-1.275,0.073-2.248c-0.823-1.49-1.548-3.033-2.169-4.618
			c-0.043-0.11-0.089-0.225-0.178-0.304c-0.089-0.078-0.235-0.106-0.324-0.028c-0.066,0.058-0.082,0.152-0.093,0.239
			c-0.129,1.021-0.084,2.064,0.128,3.072c0.173,0.824,0.793,1.538,0.403,2.397c-0.381,0.839-0.874,1.543-0.659,2.532
			c0.103,0.477,0.338,0.913,0.569,1.343c0.288,0.533,0.576,1.067,0.863,1.6c0.074,0.138,0.176,0.294,0.332,0.301
			c0.103,0.005,0.196-0.06,0.279-0.122c0.235-0.176,0.468-0.355,0.697-0.539c0.06-0.048,0.121-0.097,0.16-0.163
			c0.05-0.086,0.057-0.19,0.06-0.29C362.262,315.113,361.833,313.989,362.086,312.975z"/>
		<path style="fill:#1F143F;" d="M382.572,321.984c0.542,1.322,0.699,2.771,0.714,4.199c0.015,1.429-0.108,2.856-0.099,4.285
			c0.007,1.123,0.338,2.074,1.068,2.942c0.784,0.933,1.883,1.559,2.673,2.487c0.967,1.136,1.145,2.373,1.213,3.799
			c0.065,1.354-0.236,3.003,0.294,4.281c0.2,0.481,0.528,0.9,0.893,1.272c2.205,2.249,5.96,2.778,8.701,1.226
			c1.174-0.664,2.207-1.778,2.312-3.123c0.199-2.561-2.869-4.344-3.101-6.902c-0.101-1.121,0.367-2.21,0.501-3.328
			c0.303-2.516-1.13-4.966-3.011-6.664c-0.998-0.901-2.172-1.703-2.725-2.928c-0.898-1.99,0.145-4.367-0.408-6.478
			c-0.423-1.616-1.766-2.883-3.306-3.531c-3.527-1.484-8.207-0.929-11.273,1.319c-0.313,0.229-0.643,0.535-0.627,0.923
			c0.01,0.25,0.166,0.469,0.324,0.664c0.888,1.091,1.998,1.952,3.257,2.555C381.183,319.56,382.075,320.772,382.572,321.984z"/>
		<path style="fill:#FAB594;" d="M384.474,323.634c-0.339,0.855-1.042,1.379-1.569,1.169c-0.527-0.209-0.68-1.072-0.34-1.927
			c0.339-0.855,1.042-1.379,1.569-1.169C384.661,321.916,384.814,322.779,384.474,323.634z"/>
		<path style="fill:#FAB594;" d="M363.662,318.067c-0.39-0.848-1.505-4.349-3.032-3.361c-0.427,0.276-0.451,0.883-0.416,1.39
			c0.184,2.726,0.742,5.415,1.499,8.037c0.716,2.481,1.42,5.036,2.386,7.431c0.682,1.69,1.59,2.565,3.224,3.345
			c0.996,0.476,1.995,0.948,2.995,1.416c2.701,1.263,5.543,2.524,8.523,2.406c0.826-0.033,1.735-0.224,2.222-0.892
			c0.723-0.993,0.5-2.211-0.382-3.01c-0.535-0.485-1.205-0.788-1.866-1.078c-2.917-1.281-5.883-2.449-8.889-3.501
			c-0.359-0.126-0.727-0.254-1.023-0.493c-0.696-0.561-0.955-1.93-1.28-2.72C366.387,324.029,365.034,321.05,363.662,318.067z"/>
	</g>
	<path style="fill:#F3704B;" d="M220.425,367.841c8.732,6.558,17.918,6.24,24.483,2.127c0.903-0.565,2.073,0.039,2.073,1.105V408.1
		c0,0.735,0.596,1.331,1.331,1.331h109.376c0.735,0,1.331-0.596,1.331-1.331V298.723c0-0.735-0.596-1.331-1.331-1.331h-37.748
		c-1.081,0-1.71,1.22-1.079,2.098c4.747,6.601,5.494,16.262-1.459,25.511c-0.085,0.114-0.191,0.22-0.305,0.305
		c-16.049,12.016-33.621,0.832-33.621-14.456c0-4.247,1.364-8.169,3.669-11.37c0.629-0.873-0.011-2.088-1.087-2.088h-37.747
		c-0.735,0-1.331,0.596-1.331,1.331v37.029c0,1.064-1.168,1.67-2.07,1.104c-3.001-1.881-6.551-2.969-10.354-2.969
		c-15.298,0-26.486,17.594-14.434,33.65C220.206,367.651,220.312,367.756,220.425,367.841z"/>
	<path style="fill:#006178;" d="M177.341,270.837c-6.558,8.732-6.24,17.918-2.127,24.483c0.566,0.903-0.039,2.072-1.104,2.072
		h-37.028c-0.735,0-1.331,0.596-1.331,1.331V408.1c0,0.735,0.596,1.331,1.331,1.331h109.376c0.735,0,1.331-0.596,1.331-1.331
		v-37.748c0-1.081-1.22-1.71-2.098-1.079c-6.6,4.747-16.262,5.494-25.511-1.458c-0.114-0.085-0.22-0.191-0.305-0.305
		c-12.016-16.049-0.832-33.621,14.456-33.621c4.247,0,8.169,1.364,11.37,3.669c0.873,0.629,2.088-0.012,2.088-1.087v-37.747
		c0-0.735-0.596-1.331-1.331-1.331H209.43c-1.064,0-1.669-1.168-1.104-2.07c1.881-3.001,2.969-6.551,2.969-10.354
		c0-15.298-17.594-26.486-33.65-14.434C177.531,270.619,177.426,270.724,177.341,270.837z"/>
	<path style="fill:#36BDB1;" d="M314.112,317.371c7.792-7.651,8.854-16.781,5.77-23.888c-0.424-0.977,0.349-2.043,1.402-1.884
		l36.61,5.547c0.727,0.11,1.405-0.39,1.516-1.117l16.385-108.142c0.11-0.727-0.39-1.405-1.117-1.516l-108.142-16.386
		c-0.727-0.11-1.405,0.39-1.516,1.117l-5.655,37.322c-0.162,1.069,0.95,1.874,1.912,1.381c7.237-3.705,16.902-2.996,25.005,5.264
		c0.1,0.102,0.188,0.222,0.256,0.347c9.477,17.668-4.214,33.367-19.33,31.076c-4.199-0.636-7.872-2.572-10.692-5.331
		c-0.769-0.752-2.066-0.301-2.227,0.762l-5.655,37.321c-0.11,0.727,0.39,1.405,1.117,1.516l36.611,5.547
		c1.052,0.159,1.476,1.405,0.782,2.212c-2.31,2.686-3.917,6.032-4.487,9.793c-2.292,15.125,13.427,28.822,31.108,19.312
		C313.892,317.558,314.011,317.47,314.112,317.371z"/>
	<path style="fill:#69499C;" d="M268.501,199.883c-7.434-8.001-16.53-9.313-23.72-6.427c-0.988,0.397-2.033-0.405-1.844-1.454
		l6.554-36.443c0.13-0.723-0.351-1.415-1.074-1.546l-107.649-19.36c-0.724-0.13-1.416,0.351-1.546,1.074l-19.36,107.649
		c-0.13,0.723,0.351,1.416,1.075,1.546l37.152,6.682c1.064,0.191,1.899-0.898,1.433-1.874c-3.504-7.337-2.529-16.978,5.951-24.85
		c0.104-0.097,0.227-0.182,0.354-0.246c17.922-8.986,33.238,5.132,30.532,20.179c-0.752,4.18-2.788,7.798-5.624,10.541
		c-0.773,0.748-0.358,2.057,0.7,2.247l37.151,6.682c0.723,0.13,1.415-0.351,1.546-1.074l6.554-36.445
		c0.188-1.047,1.445-1.436,2.233-0.721c2.621,2.383,5.922,4.082,9.665,4.755c15.056,2.708,29.182-12.628,20.162-30.564
		C268.682,200.108,268.597,199.986,268.501,199.883z"/>
	<path style="opacity:0.1;fill:#FFFFFF;" d="M320.264,293.483c-0.424-0.977,0.349-2.043,1.402-1.884l0.991,0.15
		c8.409-50.015-13.441-96.677-53.024-108.412c-1.946-0.577-3.902-1.055-5.865-1.446l-1.902,12.556
		c-5.685-2.963-11.663-3.015-16.704-0.991c-0.988,0.397-2.033-0.405-1.844-1.454l2.007-11.16
		c-24.694,1.982-48.841,17.2-65.992,41.085c11.516,1.105,19.412,11.736,17.406,22.887c-0.752,4.18-2.788,7.799-5.624,10.541
		c-0.773,0.748-0.358,2.057,0.7,2.247l37.151,6.681c0.724,0.13,1.416-0.351,1.546-1.074l6.554-36.445
		c0.188-1.047,1.445-1.436,2.233-0.721c2.621,2.383,5.922,4.082,9.665,4.755c12.905,2.321,25.113-8.618,22.661-23.085
		c5.015,0.288,10.294,2.52,15.04,7.357c0.1,0.102,0.188,0.222,0.256,0.347c9.477,17.668-4.214,33.367-19.33,31.076
		c-4.199-0.636-7.872-2.572-10.692-5.331c-0.769-0.752-2.066-0.301-2.227,0.762l-5.655,37.321c-0.11,0.727,0.39,1.405,1.117,1.516
		l36.611,5.547c1.052,0.16,1.476,1.405,0.782,2.212c-2.118,2.463-3.635,5.487-4.313,8.872h-34.521c-0.361,0-0.686,0.146-0.926,0.38
		c-0.24-0.233-0.565-0.38-0.926-0.38h-37.029c-1.064,0-1.669-1.168-1.104-2.07c1.881-3.001,2.969-6.551,2.969-10.354
		c0-15.298-17.594-26.486-33.65-14.434c-0.113,0.085-0.218,0.19-0.303,0.303c-6.558,8.732-6.24,17.918-2.127,24.483
		c0.566,0.903-0.039,2.072-1.104,2.072h-19.451c-0.125,41.635,20.792,77.516,54.808,87.6
		c37.824,11.214,79.453-13.141,100.711-55.915c-13.794,4.95-26.704-5.124-26.704-18.227c0-0.941,0.077-1.863,0.207-2.768
		c3.888,10.353,16.395,16.907,30.085,9.543c0.125-0.067,0.244-0.155,0.345-0.254c0.739-0.726,1.396-1.468,2.015-2.218
		c0.886-2.454,1.71-4.954,2.464-7.499c1.015-3.424,1.883-6.848,2.61-10.262h-0.101C321.209,296.04,320.804,294.729,320.264,293.483z
		 M220.562,367.814c-0.114-0.085-0.219-0.191-0.305-0.305c-12.016-16.049-0.832-33.621,14.456-33.621
		c0.036,0,0.07,0.004,0.106,0.004c-15.236,0.091-26.337,17.631-14.316,33.646c0.085,0.113,0.19,0.218,0.303,0.303
		c4.333,3.254,8.776,4.811,12.957,5.056C229.521,372.695,224.996,371.147,220.562,367.814z"/>
	<path style="fill:#E3F3EF;" d="M424.715,65.52c3.941-0.279,10.261-1.025,12.292-5.042c2.921-5.779-4.291-11.028-9.395-11.559
		c-3.466-0.361-7.363,0.694-10.196-1.334c-1.433-1.026-2.28-2.659-3.408-4.013c-3.154-3.782-8.853-5.186-13.403-3.3
		c-1.721,0.713-3.381,1.864-5.241,1.76c-2.145-0.12-3.812-1.865-5.107-3.579c-2.968-3.93-3.663-10.693-9.344-11.154
		c-3.505-0.284-5.709,1.795-7.762,4.344c-3.849,4.777-5.864,14.393-13.051,15.327c-2.953,0.382-5.795-1.04-8.668-1.821
		c-2.873-0.781-6.514-0.644-8.121,1.863c-1.319,2.058-0.739,4.985-2.248,6.908c-1.478,1.883-4.223,1.971-6.532,2.603
		c-2.738,0.749-6.879,1.291-9.26,2.675c-1.765,1.025-3.004,3.268-2.207,5.147c0.982,2.317,4.084,2.628,6.6,2.582
		C361.38,66.344,392.902,67.772,424.715,65.52z"/>
	<path style="fill:#E3F3EF;" d="M129.469,60.057c2.772-0.196,7.218-0.721,8.646-3.547c2.055-4.065-3.019-7.757-6.608-8.13
		c-2.438-0.254-5.179,0.488-7.172-0.938c-1.008-0.721-1.604-1.871-2.397-2.823c-2.218-2.66-6.228-3.648-9.428-2.321
		c-1.211,0.502-2.378,1.311-3.687,1.238c-1.509-0.084-2.681-1.312-3.592-2.518c-2.088-2.765-2.577-7.521-6.573-7.845
		c-2.465-0.2-4.016,1.263-5.46,3.056c-2.707,3.36-4.125,10.124-9.18,10.781c-2.077,0.269-4.076-0.732-6.097-1.281
		c-2.021-0.549-4.582-0.453-5.712,1.31c-0.928,1.448-0.52,3.506-1.581,4.859c-1.039,1.325-2.97,1.386-4.595,1.831
		c-1.926,0.527-4.838,0.908-6.514,1.881c-1.241,0.721-2.113,2.299-1.552,3.621c0.691,1.63,2.873,1.848,4.643,1.816
		C84.92,60.637,107.092,61.641,129.469,60.057z"/>
	<g>
		<path style="fill:#1F143F;" d="M108.309,312.308c0.201,0.015,0.409,0.028,0.592,0.114c0.183,0.086,0.339,0.264,0.332,0.466
			c-0.004,0.114-0.057,0.221-0.126,0.312c-0.364,0.478-1.06,0.505-1.661,0.49c-2.218-0.057-4.437-0.114-6.656-0.171
			c-0.1-0.003-0.202-0.006-0.293-0.047c-0.101-0.045-0.177-0.132-0.241-0.223c-0.457-0.652-0.393-1.533-0.203-2.307
			c0.19-0.773,0.489-1.543,0.437-2.337c-0.018-0.281-0.062-0.612,0.149-0.798c0.096-0.084,0.226-0.117,0.351-0.144
			c0.705-0.152,1.428-0.218,2.149-0.198c-0.08,0-0.046,2.273,0.027,2.493C103.816,311.927,106.573,312.175,108.309,312.308z"/>
		<path style="fill:#1F143F;" d="M117.816,312.308c0.202,0.015,0.409,0.028,0.592,0.114c0.183,0.086,0.339,0.264,0.332,0.466
			c-0.003,0.114-0.057,0.221-0.126,0.312c-0.364,0.478-1.06,0.505-1.661,0.49c-2.219-0.057-4.437-0.114-6.656-0.171
			c-0.1-0.003-0.202-0.006-0.293-0.047c-0.101-0.045-0.177-0.132-0.241-0.223c-0.457-0.652-0.393-1.533-0.202-2.307
			c0.19-0.773,0.488-1.543,0.437-2.337c-0.018-0.281-0.062-0.612,0.149-0.798c0.096-0.084,0.226-0.117,0.351-0.144
			c0.705-0.152,1.428-0.218,2.149-0.198c-0.081,0-0.046,2.273,0.026,2.493C113.323,311.927,116.08,312.175,117.816,312.308z"/>
		<path style="fill:#1F143F;" d="M106.74,258.572c-1.346,0.111-2.674,0.439-3.917,0.969c-3.28,1.4-0.906,8.547-0.201,11.103
			c0.894,3.242,1.789,6.485,2.683,9.728c1.46,5.294,2.206,10.735,2.597,16.209c0.073,1.028,0.72,12.26,0.813,12.261
			c1.493,0.02,2.986,0.039,4.479,0.059c0.396,0.005,0.894-5.968,0.938-6.554c0.166-2.22,0.197-4.442,0.311-6.667
			c0.656-10.162-0.002-20.607-0.414-30.791c-0.068-1.687-0.331-3.44-1.4-4.813c-0.438-0.562-1.639-0.689-2.273-0.935
			c-0.962-0.372-1.741-0.628-2.805-0.609C107.281,258.536,107.01,258.55,106.74,258.572z"/>
		<path style="fill:#1F143F;" d="M97.261,258.892c-0.189,0.977-0.256,1.973-0.323,2.966c-0.616,9.164,0.317,18.343,0.944,27.48
			c0.446,6.501,0.954,12.998,1.325,19.504c1.493,0.02,2.986,0.039,4.48,0.059c0.396,0.005,0.894-5.968,0.938-6.554
			c0.166-2.22,0.197-4.442,0.311-6.667c0-3.541,0.37-7.12,0.547-10.658c0.21-4.193,0.454-8.423,0.956-12.586
			c0.301-2.493,0.669-4.978,0.953-7.473c0.26-2.288,0.887-4.996-0.144-7.159c-0.549-1.151-1.557-2.076-2.752-2.521
			c-1.098-0.41-2.299-0.42-3.471-0.396c-0.628,0.012-1.27,0.035-1.858,0.257C97.705,255.695,97.52,257.549,97.261,258.892z"/>
		<path style="fill:#D99D81;" d="M108.696,234.046c0.018,0.116,0.034,0.241-0.02,0.345c-0.075,0.145-0.255,0.194-0.416,0.222
			c-1.3,0.222-2.68-0.062-3.787-0.779c-0.108-0.07-0.219-0.151-0.264-0.272c-0.03-0.082-0.025-0.172-0.02-0.259
			c0.097-1.622,0.194-3.244,0.291-4.866c0.007-0.12,0.018-0.248,0.093-0.341c0.082-0.102,0.219-0.136,0.346-0.163
			c0.537-0.114,1.097-0.204,1.63-0.075c1.206,0.294,1.163,1.397,1.34,2.394C108.116,231.525,108.499,232.766,108.696,234.046z"/>
		<path style="fill:#FAB594;" d="M110.067,227.746c4.464-5.806-2.365-18.097-9.046-11.188c-4.695,4.854,3.397,17.893,8.939,11.321
			C109.996,227.837,110.032,227.792,110.067,227.746z"/>
		<path style="fill:#1F143F;" d="M97.938,216.204c0.287-0.456,0.664-0.85,1.138-1.106c0.932-0.503,2.024-0.621,2.966-1.113
			c1.008-0.528,1.944-1.452,3.074-1.322c0.727,0.084,1.222,0.3,1.938-0.058c0.469-0.234,0.897-0.563,1.402-0.704
			c2.777-0.779,4.459,3.711,2.33,5.289c-0.741,0.55-1.742,0.64-2.649,0.469c-0.265-0.05-0.533-0.12-0.801-0.094
			c-0.504,0.049-0.905,0.421-1.344,0.673c-1.154,0.662-2.752,0.579-3.591,1.61c-0.729,0.895-0.608,2.281-0.377,3.335
			c0.222,1.012,0.461,2.022,0.668,3.038c0.114,0.561,0.388,1.288-0.344,1.036c-0.799-0.275-1.688-1.24-2.279-1.823
			c-0.689-0.68-1.302-1.441-1.784-2.282c-0.986-1.719-1.406-3.815-0.877-5.725C97.523,217.007,97.699,216.584,97.938,216.204z"/>
		<path style="fill:#D99D81;" d="M121.183,236.029c-1.837,0.258-3.692,0.487-5.527,0.561c-0.752,0.03-1.522,0.031-2.237-0.204
			c-0.948-0.311-1.625-1.008-1.669-2.021c-0.039-0.881,0.592-1.685,1.368-2.104c0.776-0.419,1.679-0.526,2.558-0.602
			c0.886-0.076,1.77-0.114,2.658-0.144c1.222-0.042,2.447-0.067,3.675-0.081"/>
		<path style="fill:#FAB594;" d="M122.035,243.337c0.876,0.438,1.853,0.706,2.778,0.947c4.377,1.139,8.945,1.921,13.157,3.595
			c0.131,0.052,0.269,0.11,0.354,0.223c0.086,0.115,0.103,0.266,0.116,0.408c0.048,0.501,0.039,1.117-0.399,1.365
			c-0.153,0.086-0.333,0.108-0.507,0.126c-3.917,0.408-7.616-0.262-11.464-0.859c-1.515-0.235-3.441-0.092-4.816-0.758
			c-1.562-0.757-2.81-2.002-4.209-3.004c-2.484-1.78-4.865-3.684-7.281-5.552c-0.952-0.735-2.151-1.498-2.569-2.683
			c-0.497-1.408,0.486-3.134,2.093-2.958c2.015,0.221,4.112,2.009,5.6,3.274c1.991,1.693,3.972,3.398,5.956,5.099
			C121.205,242.87,121.608,243.124,122.035,243.337z"/>
		<path style="fill:#FAB594;" d="M103.061,224.535c0.382,0.955,0.258,1.902-0.277,2.116c-0.535,0.214-1.278-0.387-1.66-1.342
			c-0.382-0.955-0.258-1.902,0.277-2.116C101.936,222.98,102.679,223.58,103.061,224.535z"/>
		<path style="fill:#FAB594;" d="M136.9,250.039c-0.112-0.011-0.225-0.016-0.338-0.013c0.158-0.7,0.033-1.377-0.022-2.09
			c-0.009-0.12-0.014-0.253,0.063-0.346c0.074-0.088,0.197-0.11,0.311-0.126c0.736-0.105,1.511-0.116,2.188-0.429
			c0.657-0.303,1.311-0.659,1.797-1.207c0.114-0.128,0.22-0.268,0.362-0.364c0.143-0.096,0.336-0.14,0.487-0.058
			c0.095,0.051,0.161,0.145,0.205,0.244c0.143,0.322,0.079,0.708-0.092,1.015c-0.236,0.423-0.649,0.617-0.951,0.98
			c-0.44,0.531,0.768,0.29,0.96,0.289c0.742-0.004,1.485,0.004,2.225,0.071c0.036,0.003,0.078,0.01,0.095,0.042
			c0.012,0.022,0.007,0.048,0.003,0.072c-0.052,0.26-0.146,0.544-0.274,0.777c-0.133,0.244-0.332,0.444-0.535,0.635
			c-0.499,0.47-1.033,0.902-1.596,1.292c-0.55,0.38-1.219,0.734-1.858,0.54c-0.221-0.067-0.418-0.196-0.612-0.323
			C138.557,250.54,137.829,250.133,136.9,250.039z"/>
		<path style="fill:#F3704B;" d="M116.885,231.102c0,0.001,0.812,6.415,0.812,6.415s-3.708,0.716-5.586,0.789
			c-1.319,0.051-2.824,0.037-4.047-0.52c-1.083-0.494-1.742-1.474-1.874-2.645c-0.136-1.206,0.346-2.47,1.306-3.227
			c1.532-1.209,3.779-0.815,5.582-0.772C113.357,231.149,116.878,231.052,116.885,231.102z"/>
		<path style="fill:#F3704B;" d="M112.852,235.736c0.716,2.347,0.587,5.136,0.644,7.402c0.153,6.042,0.306,12.083,0.459,18.124
			c0.009,0.358,0.012,0.738-0.175,1.043c-0.227,0.369-0.672,0.533-1.088,0.654c-3.376,0.985-6.96,0.889-10.476,0.785
			c-1.56-0.046-3.158-0.1-4.606-0.683c-0.271-0.109-0.549-0.248-0.708-0.493c-0.174-0.27-0.172-0.613-0.162-0.934
			c0.15-4.989,0.557-9.97,1.212-14.918c0.516-3.894,0.317-8.124,2.08-11.739c1.7-3.487,5.74-4.555,9.229-3.25
			c1.037,0.388,2,1.035,2.627,1.948C112.315,234.297,112.626,234.994,112.852,235.736z"/>
		<path style="fill:#F3704B;" d="M117.568,238.827c0,0.001-3.748,5.27-3.748,5.27s-3.213-1.985-4.644-3.203
			c-1.005-0.856-2.103-1.885-2.625-3.123c-0.462-1.097-0.284-2.265,0.412-3.215c0.716-0.979,1.928-1.582,3.146-1.49
			c1.946,0.148,3.333,1.96,4.63,3.212C114.941,236.472,117.597,238.786,117.568,238.827z"/>
	</g>
	<g>
		<g>
			<g>
				
					<rect x="137.448" y="296.221" transform="matrix(0.9694 -0.2457 0.2457 0.9694 -82.5802 44.8817)" style="fill:#CB7C29;" width="2.31" height="114.429"/>
			</g>
			<g>
				
					<rect x="109.028" y="296.145" transform="matrix(0.9681 -0.2507 0.2507 0.9681 -85.0947 38.9143)" style="fill:#CB7C29;" width="2.311" height="114.582"/>
			</g>
			<g>
				<rect x="100.068" y="313.225" style="fill:#CB7C29;" width="28.637" height="2.311"/>
			</g>
			<g>
				<rect x="104.004" y="328.423" style="fill:#CB7C29;" width="28.553" height="2.311"/>
			</g>
			<g>
				<rect x="107.94" y="343.622" style="fill:#CB7C29;" width="28.468" height="2.311"/>
			</g>
			<g>
				<rect x="111.877" y="358.821" style="fill:#CB7C29;" width="28.384" height="2.311"/>
			</g>
			<g>
				<rect x="115.813" y="374.02" style="fill:#CB7C29;" width="28.299" height="2.311"/>
			</g>
			<g>
				<rect x="119.749" y="389.218" style="fill:#CB7C29;" width="28.215" height="2.311"/>
			</g>
		</g>
		<g>
			<g>
				<g>
					
						<rect x="24.548" y="352.281" transform="matrix(0.2456 -0.9694 0.9694 0.2456 -280.9284 345.8753)" style="fill:#FEBE52;" width="114.429" height="2.31"/>
				</g>
				<g>
					
						<rect x="52.892" y="352.28" transform="matrix(0.2505 -0.9681 0.9681 0.2505 -259.5845 371.5819)" style="fill:#FEBE52;" width="114.582" height="2.311"/>
				</g>
				<g>
					<rect x="91.661" y="313.225" style="fill:#FEBE52;" width="28.638" height="2.311"/>
				</g>
				<g>
					<rect x="87.809" y="328.423" style="fill:#FEBE52;" width="28.553" height="2.311"/>
				</g>
				<g>
					<rect x="83.957" y="343.622" style="fill:#FEBE52;" width="28.469" height="2.311"/>
				</g>
				<g>
					<rect x="80.105" y="358.821" style="fill:#FEBE52;" width="28.383" height="2.311"/>
				</g>
				<g>
					<rect x="76.253" y="374.02" style="fill:#FEBE52;" width="28.299" height="2.311"/>
				</g>
				<g>
					<rect x="72.401" y="389.218" style="fill:#FEBE52;" width="28.215" height="2.311"/>
				</g>
			</g>
		</g>
	</g>
	<g>
		<path style="fill:#1F143F;" d="M279.653,423.797c0.202,0.015,0.409,0.028,0.592,0.114s0.339,0.264,0.332,0.466
			c-0.003,0.114-0.057,0.221-0.126,0.312c-0.364,0.478-1.06,0.505-1.661,0.49c-2.219-0.057-4.437-0.114-6.656-0.171
			c-0.1-0.003-0.202-0.006-0.293-0.046c-0.101-0.045-0.177-0.132-0.241-0.223c-0.457-0.652-0.393-1.533-0.203-2.307
			c0.19-0.773,0.488-1.543,0.437-2.337c-0.018-0.281-0.062-0.612,0.149-0.798c0.096-0.084,0.226-0.117,0.351-0.143
			c0.705-0.152,1.428-0.218,2.149-0.198c-0.081,0-0.046,2.273,0.026,2.493C275.16,423.415,277.917,423.664,279.653,423.797z"/>
		<path style="fill:#365E99;" d="M268.577,370.06c-1.346,0.111-2.674,0.439-3.917,0.969c-3.28,1.4-0.906,8.547-0.201,11.103
			c0.894,3.243,1.789,6.485,2.683,9.728c1.46,5.294,2.206,10.735,2.597,16.209c0.073,1.028,0.72,12.26,0.813,12.261
			c1.493,0.02,2.987,0.039,4.48,0.059c0.396,0.005,0.893-5.968,0.938-6.554c0.166-2.22,0.197-4.441,0.311-6.667
			c0.656-10.162-0.003-20.607-0.414-30.791c-0.068-1.687-0.331-3.44-1.4-4.813c-0.438-0.562-1.639-0.689-2.273-0.935
			c-0.962-0.372-1.741-0.628-2.805-0.609C269.118,370.025,268.847,370.038,268.577,370.06z"/>
		<path style="fill:#1F143F;" d="M270.146,423.797c0.201,0.015,0.409,0.028,0.592,0.114c0.183,0.086,0.339,0.264,0.333,0.466
			c-0.004,0.114-0.057,0.221-0.126,0.312c-0.364,0.478-1.06,0.505-1.661,0.49c-2.219-0.057-4.437-0.114-6.656-0.171
			c-0.1-0.003-0.202-0.006-0.293-0.046c-0.101-0.045-0.177-0.132-0.241-0.223c-0.457-0.652-0.393-1.533-0.203-2.307
			c0.19-0.773,0.488-1.543,0.437-2.337c-0.018-0.281-0.062-0.612,0.15-0.798c0.096-0.084,0.226-0.117,0.351-0.143
			c0.705-0.152,1.428-0.218,2.149-0.198c-0.081,0-0.046,2.273,0.027,2.493C265.653,423.415,268.41,423.664,270.146,423.797z"/>
		<path style="fill:#D99D81;" d="M270.583,344.619c-0.006,0.117-0.015,0.243-0.089,0.334c-0.103,0.127-0.289,0.139-0.452,0.133
			c-1.318-0.044-2.613-0.599-3.553-1.524c-0.092-0.09-0.185-0.192-0.204-0.319c-0.013-0.086,0.01-0.174,0.032-0.258
			c0.421-1.569,0.842-3.139,1.264-4.708c0.031-0.116,0.067-0.239,0.159-0.315c0.1-0.083,0.242-0.089,0.372-0.09
			c0.549-0.004,1.116,0.02,1.612,0.255c1.123,0.53,0.859,1.602,0.832,2.614C270.521,342.033,270.647,343.326,270.583,344.619z"/>
		<path style="fill:#4266B0;" d="M259.098,370.38c-0.189,0.977-0.256,1.973-0.323,2.966c-0.616,9.164,0.317,18.343,0.944,27.48
			c0.446,6.501,0.954,12.998,1.325,19.504c1.493,0.02,2.986,0.039,4.48,0.059c0.396,0.005,0.893-5.968,0.938-6.554
			c0.166-2.22,0.197-4.441,0.311-6.667c0-3.541,0.37-7.12,0.547-10.658c0.21-4.193,0.454-8.423,0.957-12.586
			c0.301-2.493,0.669-4.977,0.953-7.473c0.26-2.288,0.887-4.996-0.143-7.159c-0.548-1.151-1.557-2.076-2.752-2.521
			c-1.098-0.41-2.299-0.419-3.471-0.397c-0.628,0.012-1.27,0.035-1.858,0.257C259.542,367.184,259.357,369.038,259.098,370.38z"/>
		<path style="fill:#FAB594;" d="M280.47,360.457c1.344-3.714,2.522-7.355,3.237-11.286c0.058-0.32,0.131-0.664,0.375-0.879
			c0.333-0.294,0.879-0.216,1.223,0.066c0.343,0.282,0.524,0.714,0.654,1.139c0.635,2.071,0.369,4.301,0.017,6.439
			c-0.488,2.962-1.129,5.899-1.921,8.795c-0.268,0.979-0.569,1.984-1.221,2.762c-3.327,3.965-6.716-2.82-7.605-5.267
			c-1.274-3.504-3.898-7.832-2.949-11.698c0.25-1.017,1.328-1.979,2.273-1.53c0.379,0.18,0.634,0.541,0.861,0.893
			c2.321,3.604,3.449,7.826,4.543,11.971C280.13,361.391,280.301,360.923,280.47,360.457z"/>
		<path style="fill:#FAB594;" d="M273.192,338.724c5.54-4.79,1.321-18.203-6.613-12.778c-5.575,3.812-0.269,18.21,6.481,12.887
			C273.104,338.798,273.148,338.762,273.192,338.724z"/>
		<path style="fill:#36BDB1;" d="M274.649,346.645c0.716,2.347,0.587,5.136,0.644,7.402c0.153,6.041,0.306,12.083,0.459,18.124
			c0.009,0.358,0.012,0.738-0.175,1.043c-0.227,0.369-0.672,0.532-1.088,0.654c-3.376,0.985-6.96,0.889-10.476,0.785
			c-1.56-0.046-3.158-0.1-4.606-0.683c-0.271-0.109-0.549-0.248-0.708-0.493c-0.174-0.27-0.172-0.613-0.162-0.934
			c0.15-4.989,0.557-9.97,1.212-14.918c0.515-3.894,0.317-8.124,2.08-11.739c1.7-3.487,5.74-4.555,9.229-3.251
			c1.037,0.388,2,1.035,2.627,1.948C274.112,345.206,274.423,345.903,274.649,346.645z"/>
		<path style="fill:#FAB594;" d="M253.729,358.587c-0.577,1.867-0.949,3.483-1.045,4.138c-0.057,0.392-0.105,0.803,0.032,1.174
			c0.092,0.25,0.261,0.464,0.427,0.673c1.668,2.096,2.863,3.517,5.331,4.745c2.564,1.276,5.185,2.438,7.853,3.479
			c0.202,0.079,0.416,0.158,0.631,0.125c0.474-0.073,0.698-0.682,0.55-1.138c-0.208-0.642-0.844-0.96-1.289-1.408
			c-0.569-0.574-1.137-1.149-1.714-1.715c-1.179-1.154-2.384-2.283-3.613-3.384c-0.992-0.889-2.09-1.698-3.041-2.627
			c-0.725-0.707-0.013-1.97,0.348-2.746c0.786-1.687,1.566-3.377,2.359-5.061c0.321-0.682,0.676-1.184,0.755-1.967
			c0.073-0.728-0.072-1.471-0.587-2.019C257.848,347.797,255.159,353.963,253.729,358.587z"/>
		<path style="fill:#36BDB1;" d="M266.255,346.022c0.188,1.806-0.733,4.029-1.494,5.247c-0.298,0.476-2.061,4.64-2.033,4.65
			c-2.417-0.79-4.754-1.826-6.962-3.086c-0.125-0.071-0.257-0.152-0.311-0.286c-0.046-0.114-0.024-0.242,0.002-0.362
			c0.373-1.737,1.463-3.253,2.263-4.793c1.197-2.301,4.928-5.539,7.531-3.394C265.874,344.511,266.173,345.226,266.255,346.022z"/>
		<path style="fill:#36BDB1;" d="M275.845,345.571c1.356,1.208,2.173,3.471,2.431,4.884c0.101,0.553,1.603,4.818,1.63,4.806
			c-2.318,1.045-4.742,1.854-7.224,2.411c-0.14,0.031-0.293,0.061-0.422-0.002c-0.11-0.053-0.181-0.163-0.242-0.269
			c-0.895-1.535-1.111-3.39-1.557-5.066c-0.666-2.507-0.09-7.413,3.278-7.582C274.546,344.712,275.248,345.039,275.845,345.571z"/>
		<path style="fill:#FAB594;" d="M284.376,339.088c0.049-0.037,0.103-0.068,0.162-0.091c0.772-0.299,0.767,0.865,0.838,1.326
			c0.08,0.522,0.121,1.051,0.122,1.579c0,0.397-0.079,0.939,0.516,0.706c0.168-0.066,0.326-0.028,0.486-0.1
			c0.518-0.231,1.153,0.072,1.469,0.544c0.315,0.472,0.383,1.064,0.408,1.631c0.03,0.669-0.062,1.245-0.207,1.89
			c-0.137,0.609-0.245,1.065-0.679,1.556c-0.455,0.514-0.812,0.789-0.977,1.485c-0.147,0.624-0.162,1.272-0.325,1.893
			c-0.011,0.042-0.025,0.087-0.06,0.112c-0.032,0.023-0.075,0.023-0.114,0.023c-0.898-0.015-2.232-0.061-2.242-1.225
			c-0.009-1.104,0-2.171-0.169-3.259c-0.131-0.845-0.246-1.697-0.231-2.555c0.01-0.592,0.181-0.813,0.534-1.283
			c0.085-0.113,0.172-0.23,0.206-0.367c0.026-0.104,0.02-0.212,0.014-0.319c-0.041-0.737-0.081-1.474-0.122-2.212
			c-0.015-0.271-0.03-0.548,0.04-0.811C284.099,339.407,284.211,339.212,284.376,339.088z"/>
		<path style="fill:#1F143F;" d="M263.63,324.98c0.372-0.389,0.821-0.7,1.337-0.855c1.014-0.305,2.108-0.201,3.129-0.495
			c1.093-0.314,2.196-1.031,3.277-0.677c0.695,0.228,1.137,0.539,1.91,0.332c0.507-0.135,0.992-0.371,1.515-0.408
			c2.877-0.205,3.622,4.531,1.219,5.65c-0.837,0.389-1.835,0.277-2.689-0.073c-0.25-0.102-0.498-0.225-0.766-0.253
			c-0.503-0.053-0.971,0.231-1.452,0.389c-1.263,0.416-2.812,0.014-3.842,0.855c-0.894,0.73-1.054,2.112-1.039,3.191
			c0.014,1.036,0.045,2.074,0.044,3.11c-0.001,0.572,0.121,1.34-0.545,0.946c-0.728-0.431-1.405-1.554-1.866-2.244
			c-0.539-0.805-0.985-1.673-1.289-2.594c-0.621-1.882-0.611-4.02,0.292-5.784C263.062,325.682,263.319,325.304,263.63,324.98z"/>
		<path style="fill:#FAB594;" d="M266.974,334.17c0.182,1.012-0.13,1.915-0.697,2.017c-0.567,0.102-1.174-0.636-1.356-1.648
			c-0.182-1.012,0.13-1.915,0.697-2.017C266.185,332.42,266.792,333.158,266.974,334.17z"/>
		<path style="fill:#FAB594;" d="M267.969,371.534c0.074,0.028,0.15,0.051,0.226,0.069c0.616,0.14,1.278-0.081,1.922,0.031
			c0.717,0.125,2.003,0.517,2.25,1.29c0.04,0.125,0.063,0.263,0.021,0.388c-0.042,0.125-0.163,0.23-0.294,0.217
			c-0.087-0.009-0.161-0.065-0.233-0.115c-0.301,0-1.399-0.814-1.583-0.201c-0.181,0.602,1.412,2.18,1.91,2.334
			c0.204,0.063,0.421,0.066,0.629,0.113c0.208,0.046,0.422,0.15,0.514,0.342c0.095,0.198,0.034,0.443-0.099,0.618
			c-0.132,0.175-0.323,0.295-0.513,0.405c-0.538,0.314-1.106,0.592-1.715,0.719c-1.957,0.405-2.954-1.138-3.782-2.638
			c-0.584-1.058-1.42-1.914-2.192-2.837c-0.049-0.059-0.099-0.124-0.107-0.201c-0.006-0.059,0.015-0.118,0.038-0.173
			c0.221-0.533,0.669-0.933,1.103-1.314c0.037-0.032,0.076-0.066,0.122-0.08c0.093-0.029,0.19,0.024,0.274,0.074
			C266.937,370.864,267.427,371.328,267.969,371.534z"/>
	</g>
	<g>
		<path style="fill:#D19A5C;" d="M193.624,374.403c-0.8-0.133-1.451-0.561-2.208-0.766c-0.543-0.147-1.182-0.091-1.753-0.159
			c-1.374-0.164-2.727-0.493-4.026-0.97c-2.558-0.94-4.907-2.457-6.784-4.436c-0.556-0.586-1.082-1.227-1.353-1.988
			c-0.718-2.015,0.501-4.339-0.217-6.355c-0.316-0.887-0.975-1.608-1.374-2.461c-0.573-1.227-0.569-2.667-0.207-3.972
			c0.362-1.305,1.057-2.492,1.827-3.606c0.557-0.805,1.165-1.596,1.485-2.521c0.225-0.651,0.301-1.352,0.572-1.985
			c0.705-1.645,2.715-2.512,4.469-2.153c1.143,0.234,2.193,0.738,3.375,0.65c1.348-0.1,2.598-0.124,3.888,0.368
			c1.432,0.546,2.682,1.611,3.344,2.993c0.755,1.577,0.71,3.404,0.648,5.151c-0.028,0.802-0.271,1.838,0.138,2.548
			c0.396,0.687,1.273,1.206,1.828,1.761c0.956,1.001,1.488,2.394,1.442,3.777c-0.03,0.897-0.289,1.814-0.045,2.678
			c0.209,0.738,0.754,1.324,1.171,1.968c1.296,2.003,1.286,4.771-0.023,6.765C198.514,373.686,195.977,374.795,193.624,374.403z"/>
		<path style="fill:#1F143F;" d="M181.919,444.109c-0.201,0.015-0.409,0.028-0.592,0.114c-0.183,0.086-0.339,0.264-0.333,0.466
			c0.003,0.114,0.057,0.221,0.126,0.312c0.364,0.478,1.06,0.505,1.661,0.49c2.219-0.057,4.437-0.114,6.656-0.171
			c0.1-0.003,0.202-0.006,0.293-0.047c0.101-0.045,0.177-0.132,0.241-0.223c0.457-0.652,0.393-1.533,0.203-2.307
			c-0.19-0.773-0.488-1.543-0.437-2.337c0.018-0.281,0.062-0.612-0.15-0.798c-0.096-0.084-0.226-0.117-0.351-0.143
			c-0.705-0.152-1.428-0.218-2.149-0.198c0.081,0,0.046,2.273-0.027,2.493C186.412,443.728,183.655,443.976,181.919,444.109z"/>
		<path style="fill:#FAB594;" d="M181.55,364.995c-0.018,0.116-0.034,0.241,0.02,0.345c0.075,0.145,0.255,0.194,0.416,0.222
			c1.3,0.222,2.68-0.062,3.787-0.779c0.108-0.07,0.219-0.151,0.264-0.272c0.03-0.082,0.025-0.172,0.02-0.259
			c-0.097-1.622-0.194-3.244-0.292-4.866c-0.007-0.12-0.018-0.248-0.093-0.341c-0.082-0.102-0.219-0.136-0.347-0.163
			c-0.537-0.114-1.097-0.204-1.63-0.074c-1.206,0.293-1.163,1.397-1.34,2.393C182.131,362.473,181.748,363.715,181.55,364.995z"/>
		<path style="fill:#009473;" d="M171.516,356.16c-0.722,0.979-1.439,1.96-2.15,2.947c-0.152,0.211-0.313,0.43-0.544,0.551
			c-0.48,0.25-1.48-0.491-1.932-0.699c-0.077-0.035-0.156-0.073-0.206-0.141c-0.183-0.247,0.365-1.141,0.476-1.39
			c0.238-0.53,0.494-1.05,0.747-1.573c0.492-1.017,0.979-2.042,1.299-3.128c0.149-0.506,0.287-1.01,0.88-1.053
			c0.903-0.065,2.278,0.544,2.819,1.291c0.644,0.889-0.391,1.846-0.888,2.517C171.85,355.708,171.683,355.934,171.516,356.16z"/>
		<path style="fill:#FAB594;" d="M168.196,368.012c0.072-0.932,0.162-1.858,0.335-2.797c0.234-1.268,0.507-2.532,0.643-3.816
			c0.038-0.354,0.068-0.726-0.074-1.052c-0.175-0.404-0.623-0.672-1.062-0.635c-0.429,0.036-0.801,0.333-1.035,0.694
			c-0.234,0.361-0.353,0.783-0.468,1.197c-0.624,2.239-1.247,4.479-1.871,6.718c-0.343,1.231-0.688,2.48-0.7,3.758
			c-0.02,2.11,3.111,1.398,4.378,1.13c3.996-0.848,7.967-1.935,11.671-3.68c0.513-0.246,1.111-0.493,1.442-0.983
			c0.42-0.623,0.518-1.493,0.372-2.216c-0.064-0.318-0.183-0.634-0.403-0.871c-0.374-0.402-0.95-0.371-1.45-0.297
			c-2.824,0.414-5.5,1.229-8.18,2.192c-1.197,0.43-2.415,0.987-3.645,1.299C168.164,368.438,168.179,368.225,168.196,368.012z"/>
		<path style="fill:#00B69E;" d="M169.195,352.922c-2.005-0.643-4.234-0.766-6.194,0.004c-0.503,0.198-1.16,0.42-1.513,0.01
			c-0.121-0.14-0.17-0.327-0.211-0.508c-0.81-3.607,0.646-7.624,3.58-9.874c0.711-0.545,1.736-0.987,2.455-0.452
			c0.277,0.206,0.446,0.521,0.607,0.825c0.744,1.406,1.494,2.817,2.443,4.093c0.979,1.317,2.168,2.477,3.503,3.432
			c1.02,0.729,2.993,1.347,3.273,2.761c0.081,0.407-0.072,0.826-0.282,1.183c-0.16,0.272-0.359,0.526-0.613,0.712
			c-1.105,0.813-2.454-0.293-3.479-0.68C171.557,353.972,170.432,353.319,169.195,352.922z"/>
		<path style="fill:#009473;" d="M167.109,345.942c-0.009,0.026-0.017,0.052-0.025,0.076c-0.501,1.509-1.219,2.943-2.126,4.243
			c-0.739,1.059-1.91,2.784-3.324,2.871c-0.955,0.059-1.237-0.901-1.271-1.695c-0.134-3.142,0.991-6.513,3.094-8.838
			c0.849-0.938,2.074-1.67,3.347-1.18C168.418,342.039,167.507,344.749,167.109,345.942z"/>
		<path style="fill:#FAB594;" d="M167.964,354.795c-0.023,0.008-0.045,0.018-0.067,0.028c-0.22,0.107-0.37,0.315-0.507,0.518
			c-0.324,0.478-0.631,0.968-0.92,1.467c-0.125,0.216-0.248,0.439-0.29,0.684c-0.154,0.899,1.062,2.03,0.62,3.303
			c-0.02,0.057,1.465-0.117,2.039,0.086c0.114,0.04,0.35,0.029,0.35,0.029s0.158-0.162,0.203-0.267
			c0.385-0.896,0.76-1.758,1.243-2.597c0.191-0.332,0.332-0.726,0.226-1.094c-0.129-0.445-0.552-0.649-0.854-0.958
			c-0.32-0.327-0.605-0.672-0.978-0.949C168.723,354.82,168.314,354.667,167.964,354.795z"/>
		<path style="fill:#1F143F;" d="M172.412,444.109c-0.202,0.015-0.409,0.028-0.592,0.114c-0.183,0.086-0.339,0.264-0.333,0.466
			c0.003,0.114,0.057,0.221,0.126,0.312c0.364,0.478,1.06,0.505,1.661,0.49c2.219-0.057,4.437-0.114,6.656-0.171
			c0.1-0.003,0.202-0.006,0.293-0.047c0.101-0.045,0.177-0.132,0.24-0.223c0.457-0.652,0.393-1.533,0.203-2.307
			c-0.19-0.773-0.488-1.543-0.437-2.337c0.018-0.281,0.062-0.612-0.149-0.798c-0.096-0.084-0.226-0.117-0.351-0.143
			c-0.705-0.152-1.428-0.218-2.149-0.198c0.08,0,0.046,2.273-0.027,2.493C176.905,443.728,174.148,443.976,172.412,444.109z"/>
		<path style="fill:#F3704B;" d="M183.488,390.373c1.346,0.111,2.674,0.439,3.917,0.969c3.28,1.4,0.906,8.547,0.201,11.103
			c-0.894,3.243-1.789,6.485-2.683,9.728c-1.46,5.294-2.206,10.735-2.597,16.209c-0.073,1.028-0.72,12.26-0.813,12.261
			c-1.493,0.02-2.986,0.039-4.48,0.059c-0.396,0.005-0.893-5.968-0.937-6.554c-0.166-2.219-0.197-4.441-0.311-6.667
			c-0.656-10.162,0.003-20.607,0.414-30.791c0.068-1.687,0.331-3.44,1.4-4.813c0.438-0.562,1.639-0.689,2.273-0.935
			c0.962-0.372,1.741-0.628,2.805-0.609C182.947,390.337,183.218,390.351,183.488,390.373z"/>
		<path style="fill:#F3704B;" d="M192.967,390.693c0.189,0.977,0.256,1.973,0.323,2.966c0.617,9.164-0.317,18.343-0.944,27.48
			c-0.446,6.501-0.954,12.998-1.325,19.504c-1.493,0.02-2.986,0.039-4.48,0.059c-0.396,0.005-0.894-5.968-0.938-6.554
			c-0.166-2.219-0.197-4.441-0.311-6.667c0-3.541-0.37-7.12-0.547-10.658c-0.21-4.193-0.454-8.423-0.957-12.586
			c-0.301-2.493-0.669-4.978-0.953-7.473c-0.26-2.288-0.887-4.996,0.144-7.159c0.548-1.151,1.557-2.076,2.752-2.521
			c1.098-0.41,2.299-0.419,3.471-0.397c0.628,0.012,1.27,0.035,1.858,0.257C192.523,387.496,192.708,389.35,192.967,390.693z"/>
		<path style="fill:#FAB594;" d="M180.18,358.695c-4.464-5.806,2.365-18.097,9.046-11.188c4.695,4.854-3.397,17.892-8.939,11.321
			C180.25,358.785,180.215,358.741,180.18,358.695z"/>
		<path style="fill:#1F143F;" d="M192.657,394.283c2.565-1.031,0.259-5.014-0.303-6.629c-1.268-3.644-0.974-7.412-0.457-11.18
			c0.123-0.896,0.405-1.902,0.269-2.807c-0.102-0.675-0.364-1.31-0.459-1.997c-0.261-1.884-0.632-3.749-1.472-5.472
			c-1.7-3.487-5.74-4.555-9.229-3.25c-1.268,0.474-2.031,1.171-2.498,2.444c-0.213,0.579-0.425,1.158-0.637,1.736
			c-0.348,0.948-0.696,1.896-1.044,2.843c-0.601,1.637-1.199,3.475-0.497,5.072c0.362,0.823,1.044,1.496,1.278,2.363
			c0.094,0.348,0.111,0.712,0.122,1.073c0.119,3.769-0.484,7.253-1.222,10.896c-0.204,1.009-0.17,2.067-0.196,3.108
			c-0.009,0.358-0.012,0.738,0.175,1.043c0.227,0.369,0.672,0.533,1.088,0.654c3.376,0.985,6.96,0.889,10.476,0.785
			C189.611,394.919,191.209,394.865,192.657,394.283z"/>
		<path style="fill:#FAB594;" d="M196.899,376.459c0.577,1.867,0.949,3.483,1.045,4.138c0.057,0.392,0.105,0.803-0.032,1.174
			c-0.092,0.25-0.261,0.464-0.427,0.673c-1.668,2.096-2.863,3.517-5.331,4.745c-2.564,1.276-5.185,2.438-7.854,3.479
			c-0.202,0.079-0.416,0.158-0.631,0.125c-0.474-0.073-0.698-0.682-0.55-1.139c0.208-0.642,0.845-0.96,1.289-1.408
			c0.569-0.574,1.137-1.149,1.714-1.715c1.179-1.154,2.384-2.283,3.614-3.384c0.992-0.889,2.09-1.698,3.041-2.627
			c0.725-0.707,0.013-1.97-0.348-2.746c-0.89-1.91-1.644-3.865-2.926-5.515c-1.212-1.561-1.899-3.97-1.587-5.92
			c0.087-0.544,0.277-1.113,0.718-1.442c0.535-0.399,1.312-0.328,1.891,0.005c0.579,0.332,1,0.878,1.387,1.422
			C194.109,369.41,195.782,372.846,196.899,376.459z"/>
		<path style="fill:#D19A5C;" d="M187.894,358.225c0.014,0.569,0.198,2.929,1.078,2.62c0.734-0.258,0.841-2.003,1.015-2.608
			c0.143-0.499,0.363-0.971,0.583-1.442c1.265-2.714,3.148-5.249,2.27-8.419c-0.117-0.421-0.293-0.843-0.531-1.223
			c-1.241-1.974-4.22-3.275-6.457-3.53c-0.981-0.112-2.058-0.041-2.822,0.585c-0.48,0.394-0.79,0.989-0.836,1.608
			c-0.084,1.124,0.665,2.156,1.559,2.843s1.949,1.134,2.865,1.79c1.283,0.919,1.948,2.119,1.605,3.684
			C187.922,355.51,187.86,356.804,187.894,358.225z"/>
		<path style="fill:#FAB594;" d="M187.185,355.484c-0.382,0.955-0.258,1.902,0.277,2.116c0.535,0.214,1.278-0.387,1.66-1.342
			c0.382-0.955,0.258-1.902-0.277-2.116C188.31,353.928,187.567,354.529,187.185,355.484z"/>
		<path style="fill:#FAB594;" d="M182.66,389.406c-0.074,0.028-0.15,0.051-0.226,0.069c-0.616,0.139-1.278-0.081-1.922,0.031
			c-0.717,0.125-2.003,0.517-2.249,1.29c-0.04,0.125-0.063,0.263-0.021,0.388c0.042,0.125,0.163,0.23,0.294,0.217
			c0.087-0.009,0.161-0.065,0.233-0.115c0.301,0,1.399-0.814,1.583-0.201c0.181,0.602-1.412,2.18-1.91,2.334
			c-0.204,0.063-0.421,0.067-0.629,0.113c-0.208,0.046-0.422,0.15-0.514,0.342c-0.095,0.198-0.033,0.443,0.098,0.618
			c0.132,0.175,0.323,0.295,0.513,0.406c0.538,0.314,1.106,0.592,1.716,0.719c1.957,0.405,2.954-1.138,3.782-2.638
			c0.584-1.058,1.42-1.914,2.192-2.837c0.049-0.059,0.099-0.124,0.107-0.201c0.006-0.059-0.015-0.118-0.038-0.173
			c-0.221-0.533-0.669-0.933-1.103-1.314c-0.037-0.032-0.076-0.066-0.122-0.08c-0.093-0.029-0.19,0.024-0.274,0.074
			C183.691,388.736,183.201,389.201,182.66,389.406z"/>
	</g>
	<g>
		<path style="fill:#D19A5C;" d="M252.464,88.298c-0.204,0.103-0.419,0.179-0.647,0.209c-0.489,0.064-0.978-0.094-1.434-0.28
			c-2.784-1.131-5.034-3.334-6.675-5.852c-2.012-3.087-2.893-10.628,2.896-9.995c1.16,0.127,2.252,0.531,3.421,0.334
			c1.333-0.225,2.576-0.364,3.906,0.006c1.476,0.411,2.82,1.355,3.607,2.67c1.581,2.641,1.252,5.708-0.335,8.259
			c-1.016,1.632-2.437,2.978-3.967,4.143C252.992,87.976,252.737,88.16,252.464,88.298z"/>
		<path style="fill:#1F143F;" d="M307.863,161.231c0.017,0.014,0.035,0.029,0.053,0.043c0.433,0.34,1.005,0.498,1.551,0.429
			c0.094-0.012,0.19-0.032,0.264-0.09c0.148-0.117,0.188-0.472,0.294-0.643c-0.206-0.703-0.822-1.195-1.23-1.803
			c-0.143-0.213-0.26-0.441-0.376-0.67c-0.652-1.283-1.102-2.6-1.384-4.004c-0.02-0.098-0.04-0.198-0.096-0.281
			c-0.394-0.585-1.617-0.809-2.239-0.979c-0.176-0.048-2.542-0.85-2.367-1.048c-0.396,0.447-0.791,0.894-1.187,1.341
			c-0.053,0.06-0.108,0.125-0.115,0.204c-0.008,0.093,0.053,0.177,0.112,0.25c0.661,0.818,1.445,1.536,2.318,2.123
			c1.59,1.069,2.582,2.743,3.675,4.273C307.355,160.681,307.577,160.991,307.863,161.231z"/>
		<path style="fill:#D99D81;" d="M250.17,94.634c0.04,0.11,0.086,0.228,0.183,0.293c0.135,0.091,0.317,0.048,0.471-0.005
			c1.247-0.428,2.323-1.339,2.95-2.499c0.061-0.113,0.12-0.238,0.101-0.365c-0.013-0.086-0.06-0.163-0.107-0.237
			c-0.863-1.377-1.726-2.754-2.589-4.131c-0.064-0.102-0.134-0.209-0.245-0.255c-0.12-0.05-0.257-0.014-0.382,0.023
			c-0.526,0.157-1.061,0.347-1.466,0.716c-0.918,0.836-0.351,1.783-0.029,2.743C249.471,92.143,249.73,93.416,250.17,94.634z"/>
		<path style="fill:#FAB594;" d="M239.946,103.389c-2.243,1.067-6.17,1.038-8.203,1.517c-3.785,0.892-7.512,2.032-11.147,3.414
			c-0.653,0.248-1.443,0.793-1.192,1.444c0.079,0.203,0.25,0.355,0.422,0.489c2.188,1.708,7.023,0.206,9.624-0.115
			c3.771-0.465,10.364-0.111,13.267-2.786c3.004-2.769,5.863-5.73,8.159-9.121c0.316-0.473,0.704-0.991,0.738-1.581
			c0.044-0.75-0.316-1.549-0.812-2.096c-0.217-0.24-0.48-0.452-0.791-0.543c-0.526-0.155-1.006,0.166-1.399,0.484
			c-2.218,1.798-4.103,3.864-5.916,6.059c-0.546,0.661-1.038,1.37-1.602,2.014C240.804,102.9,240.411,103.168,239.946,103.389z"/>
		<path style="fill:#FAB594;" d="M215.955,110.436c0.012,0.021,0.025,0.042,0.039,0.062c0.14,0.2,0.37,0.315,0.591,0.419
			c0.523,0.244,1.055,0.47,1.594,0.677c0.233,0.089,0.472,0.176,0.721,0.178c0.912,0.01,1.836-1.369,3.164-1.134
			c0.059,0.01-0.347-1.428-0.237-2.027c0.022-0.118-0.026-0.351-0.026-0.351s-0.185-0.13-0.296-0.158
			c-0.945-0.238-1.856-0.473-2.761-0.818c-0.358-0.136-0.77-0.213-1.116-0.05c-0.419,0.197-0.554,0.648-0.811,0.995
			c-0.273,0.368-0.568,0.704-0.782,1.115C215.859,109.682,215.773,110.11,215.955,110.436z"/>
		<path style="fill:#1F143F;" d="M265.703,169.598c-0.044,0.056-0.064,0.121-0.045,0.193c0.04,0.145,0.217,0.194,0.366,0.217
			c2.242,0.354,4.499,0.614,6.763,0.779c0.175,0.013,0.366,0.021,0.508-0.081c0.109-0.078,0.169-0.206,0.216-0.331
			c0.349-0.926,0.222-1.966-0.05-2.917c-0.212-0.741-0.511-1.452-0.732-2.19c-0.13-0.433-0.006-1.426-0.454-1.673
			c-0.112-0.062-0.246-0.065-0.374-0.065c-0.721,0.003-1.442,0.093-2.141,0.268c0.089-0.019,0.393,1.609,0.413,1.742
			c0.119,0.808,0.165,1.726-0.445,2.361c-0.47,0.49-1.159,0.686-1.81,0.88c-0.639,0.19-1.273,0.396-1.902,0.617
			C265.902,169.439,265.773,169.507,265.703,169.598z"/>
		<path style="fill:#69499C;" d="M265.039,114.775c1.339-0.18,2.706-0.145,4.034,0.106c3.504,0.664,2.719,8.153,2.579,10.802
			c-0.178,3.359-0.355,6.718-0.533,10.077c-0.29,5.484,0.149,10.958,0.942,16.388c0.149,1.019,1.928,12.129,1.837,12.15
			c-1.454,0.34-2.908,0.679-4.363,1.019c-0.386,0.09-2.153-5.637-2.322-6.201c-0.639-2.132-1.145-4.296-1.735-6.445
			c-2.821-9.785-4.42-20.128-6.203-30.162c-0.296-1.662-0.415-3.43,0.335-5.001c0.307-0.643,1.453-1.025,2.019-1.401
			c0.86-0.57,1.566-0.987,2.609-1.197C264.503,114.856,264.771,114.811,265.039,114.775z"/>
		<path style="fill:#69499C;" d="M272.898,113.258c0.787,0.609,1.496,1.312,2.203,2.013c6.519,6.47,11.885,13.975,17.453,21.247
			c3.961,5.174,7.874,10.386,11.895,15.513c-1.108,1.002-2.215,2.003-3.323,3.005c-0.294,0.266-4.615-3.888-5.035-4.299
			c-1.592-1.556-3.083-3.203-4.64-4.798c-2.34-2.658-4.983-5.099-7.454-7.637c-2.929-3.008-5.908-6.021-9.036-8.813
			c-1.873-1.672-3.792-3.293-5.654-4.978c-1.707-1.545-3.968-3.164-4.624-5.468c-0.349-1.227-0.203-2.587,0.399-3.711
			c0.553-1.033,1.448-1.835,2.343-2.592c0.48-0.406,0.976-0.813,1.564-1.035C270.452,111.152,271.816,112.422,272.898,113.258z"/>
		<path style="fill:#FAB594;" d="M244.198,88.334c-4.984-5.367,0.674-18.238,7.969-11.98c5.125,4.397-1.721,18.131-7.85,12.103
			C244.277,88.417,244.238,88.377,244.198,88.334z"/>
		<path style="fill:#36BDB1;" d="M273.958,115.012c1.756-2.135-2.176-4.525-3.444-5.673c-2.86-2.59-4.408-6.037-5.76-9.593
			c-0.322-0.845-0.556-1.863-1.11-2.592c-0.413-0.544-0.947-0.976-1.36-1.532c-1.132-1.528-2.352-2.987-3.915-4.096
			c-3.164-2.245-7.221-1.246-9.658,1.572c-0.886,1.024-1.221,2.002-1.021,3.343c0.091,0.61,0.182,1.22,0.273,1.829
			c0.149,0.999,0.298,1.997,0.447,2.996c0.257,1.725,0.614,3.625,1.995,4.689c0.712,0.548,1.633,0.812,2.255,1.461
			c0.249,0.26,0.439,0.572,0.621,0.883c1.912,3.25,3.052,6.597,4.151,10.149c0.304,0.983,0.842,1.895,1.318,2.822
			c0.164,0.318,0.343,0.654,0.654,0.832c0.376,0.215,0.845,0.145,1.268,0.052c3.435-0.754,6.535-2.556,9.57-4.333
			C271.59,117.031,272.967,116.218,273.958,115.012z"/>
		<path style="fill:#FAB594;" d="M288.564,107.415c-1.411,0.203-3.38-0.397-4.593-0.646c-2.458-0.506-4.914-1.022-7.367-1.549
			c-4.345-0.933-7.982-3.866-12.103-5.509c-3.043-1.213-6.597-2.11-8.179-5.301c-0.245-0.494-0.42-1.067-0.252-1.591
			c0.204-0.635,0.879-1.028,1.543-1.093c0.664-0.065,1.324,0.135,1.954,0.353c3.11,1.077,6.046,2.606,8.745,4.486
			c1.298,0.904,2.425,1.921,3.888,2.593c1.25,0.574,2.409,0.647,3.703,1.005c1.494,0.414,2.963,0.917,4.41,1.475
			c2.143,0.826,4.235,1.775,6.311,2.757c0.52,0.246,4.655,1.99,2.579,2.851C289.009,107.327,288.794,107.382,288.564,107.415z"/>
		<path style="fill:#D19A5C;" d="M251.922,86.939c0.273,0.133,0.695,0.04,1.333-0.406c2.421-1.697,3.622-6.94,2.592-9.648
			c-0.155-0.408-0.37-0.812-0.643-1.168c-1.419-1.85-4.506-2.87-6.756-2.916c-0.987-0.02-2.053,0.15-2.756,0.845
			c-0.441,0.436-0.694,1.058-0.683,1.678c0.02,1.127,0.863,2.085,1.816,2.686c0.954,0.6,2.046,0.948,3.019,1.516
			c1.363,0.796,2.136,1.929,1.94,3.519C251.673,83.949,251.076,86.527,251.922,86.939z"/>
		<path style="fill:#D19A5C;" d="M250.876,84.486c-0.291,0.986-0.08,1.918,0.473,2.081c0.552,0.163,1.237-0.504,1.528-1.49
			c0.291-0.986,0.08-1.918-0.473-2.081C251.851,82.833,251.167,83.5,250.876,84.486z"/>
		<path style="fill:#FAB594;" d="M287.583,107.513c0.063,0.048,0.123,0.1,0.178,0.155c0.445,0.449,0.608,1.127,1.044,1.614
			c0.486,0.542,1.499,1.425,2.286,1.225c0.128-0.032,0.256-0.086,0.34-0.188c0.084-0.102,0.109-0.26,0.029-0.365
			c-0.053-0.069-0.14-0.102-0.221-0.137c-0.895-0.386-1.636-1.455-0.199-1.465c1.622-0.012,3.127,1.067,4.79,1.05
			c0.216-0.002,0.439-0.021,0.628-0.124c1.235-0.67-1.637-2.361-2.093-2.675c-1.212-0.834-2.617-1.699-4.148-1.617
			c-1.207,0.065-2.376-0.19-3.568-0.356c-0.076-0.011-0.158-0.018-0.227,0.016c-0.053,0.026-0.092,0.075-0.127,0.123
			c-0.335,0.47-0.437,1.062-0.53,1.632c-0.008,0.049-0.016,0.099-0.003,0.146c0.025,0.094,0.121,0.149,0.208,0.193
			C286.468,106.993,287.122,107.163,287.583,107.513z"/>
		<path style="fill:#D19A5C;" d="M260.003,72.045c1.846,2.286,0.175,5.895-2.82,5.716c-1.193-0.071-2.3-0.688-3.183-1.493
			c-0.394-0.359-0.756-0.765-0.991-1.243c-0.969-1.979,0.426-4.462,2.536-4.832c0.876-0.154,1.776,0.104,2.582,0.48
			C258.835,71.003,259.511,71.437,260.003,72.045z"/>
	</g>
	<polyline style="fill:none;stroke:#1F143F;stroke-miterlimit:10;" points="146.333,142 207,84.654 242.36,159.387 	"/>
	<line style="fill:none;stroke:#1F143F;stroke-miterlimit:10;" x1="207" y1="-22.965" x2="207" y2="85.188"/>
	<path style="fill:none;stroke:#1F143F;stroke-miterlimit:10;" d="M149.5,142c0,1.749-1.418,3.167-3.167,3.167
		s-3.167-1.418-3.167-3.167s1.418-3.167,3.167-3.167S149.5,140.251,149.5,142z"/>
	<path style="fill:none;stroke:#1F143F;stroke-miterlimit:10;" d="M245.527,159.387c0,1.749-1.418,3.167-3.167,3.167
		s-3.167-1.418-3.167-3.167s1.418-3.167,3.167-3.167S245.527,157.638,245.527,159.387z"/>
</g>
<g id="DESIGNED_BY_FREEPIK">
	<g>
		<g id="XMLID_319_">
			<g id="XMLID_338_">
				<path id="XMLID_346_" style="fill:#231F20;" d="M261.077,473.938c-0.432,0.443-0.803,0.931-1.108,1.453l-0.465-0.241
					c-0.067-0.298-0.349-0.503-0.659-0.466c-0.331,0.039-0.568,0.339-0.529,0.67c0.039,0.331,0.339,0.568,0.67,0.529
					c0.065-0.008,0.127-0.026,0.184-0.052l0.452,0.234c-0.251,0.554-0.433,1.139-0.539,1.744l0.746,0.132
					c0.23-1.306,0.85-2.507,1.792-3.473L261.077,473.938z"/>
				<path id="XMLID_345_" style="fill:#231F20;" d="M266.565,471.636c-0.171,0-0.341,0.006-0.51,0.017l-0.074-0.626
					c0.188-0.149,0.296-0.389,0.266-0.645c-0.046-0.393-0.402-0.674-0.795-0.628s-0.674,0.402-0.628,0.795
					c0.03,0.254,0.189,0.461,0.405,0.564l0.073,0.624c-0.714,0.116-1.403,0.332-2.06,0.646l0.327,0.684
					c0.934-0.447,1.942-0.673,2.995-0.673c0.496,0,0.993,0.053,1.475,0.158l0.161-0.741
					C267.665,471.694,267.115,471.636,266.565,471.636z"/>
				<path id="XMLID_344_" style="fill:#231F20;" d="M273.167,474.183c0.331-0.04,0.566-0.341,0.526-0.672
					c-0.041-0.331-0.342-0.566-0.672-0.526c-0.309,0.038-0.535,0.304-0.53,0.609l-0.416,0.363c-0.418-0.43-0.89-0.813-1.408-1.139
					l-0.404,0.641c1.134,0.715,2.021,1.726,2.563,2.925l0.69-0.313c-0.251-0.554-0.568-1.072-0.942-1.545l0.402-0.351
					C273.038,474.188,273.102,474.191,273.167,474.183z"/>
				<path id="XMLID_343_" style="fill:#231F20;" d="M266.017,481.844c-0.386,0.023-0.775,0.035-1.157,0.035
					c-0.88,0-1.733-0.061-2.478-0.179c-0.39-0.062-0.846-0.155-1.27-0.292c1.046,1.861,3.069,3.125,5.388,3.125
					c2.855,0,5.262-1.916,5.95-4.504c-0.682,0.449-1.505,0.825-2.459,1.123C268.811,481.519,267.436,481.759,266.017,481.844z"/>
				<path id="XMLID_339_" style="fill:#231F20;" d="M266.565,473.152c-3.352,0-6.08,2.666-6.08,5.944
					c0,0.426,0.046,0.849,0.137,1.261c0.673,0.483,2.706,0.89,5.348,0.731c2.879-0.173,5.297-0.957,6.672-2.158
					c-0.005-0.195-0.021-0.39-0.045-0.582C272.216,475.385,269.623,473.152,266.565,473.152z M264.405,479.667
					c-1.02,0-1.85-0.83-1.85-1.85c0-1.02,0.83-1.85,1.85-1.85c1.02,0,1.85,0.83,1.85,1.85
					C266.255,478.837,265.425,479.667,264.405,479.667z M269.142,478.758c-0.75,0-1.36-0.61-1.36-1.36s0.61-1.361,1.36-1.361
					c0.75,0,1.361,0.61,1.361,1.361S269.893,478.758,269.142,478.758z"/>
			</g>
			<path id="XMLID_336_" style="fill:#231F20;" d="M282.568,475.019c-0.295-0.116-0.806-0.309-1.382-0.237
				c-0.551,0.068-0.844,0.34-0.844,1.007v0.866h2.228v1.717h-2.228v5.455h-1.932v-5.455h-1.34v-1.717h1.34v-0.888
				c0-1.68,0.896-2.783,2.568-2.783c0.642,0,1.157,0.122,1.59,0.308L282.568,475.019z"/>
			<path id="XMLID_334_" style="fill:#231F20;" d="M287.271,478.351c-0.177-0.03-0.358-0.046-0.526-0.046
				c-0.896,0-1.51,0.548-1.51,1.613v3.908h-1.932v-7.172h1.873v0.785c0.451-0.674,1.14-0.977,2.021-0.977
				c0.414,0,0.848,0.128,1.094,0.337L287.271,478.351z"/>
			<path id="XMLID_331_" style="fill:#231F20;" d="M294.938,480.229c0,0.222-0.015,0.489-0.037,0.651h-5.085
				c0.207,1.036,0.933,1.488,1.843,1.488c0.622,0,1.295-0.252,1.813-0.688l1.133,1.243c-0.814,0.748-1.85,1.088-3.057,1.088
				c-2.198,0-3.723-1.495-3.723-3.753c0-2.257,1.48-3.797,3.626-3.797C293.517,476.462,294.93,477.994,294.938,480.229z
				 M289.823,479.563h3.175c-0.177-0.918-0.733-1.436-1.562-1.436C290.526,478.127,289.994,478.675,289.823,479.563z"/>
			<path id="XMLID_328_" style="fill:#231F20;" d="M302.591,480.229c0,0.222-0.015,0.489-0.037,0.651h-5.085
				c0.207,1.036,0.932,1.488,1.843,1.488c0.622,0,1.295-0.252,1.813-0.688l1.132,1.243c-0.814,0.748-1.85,1.088-3.057,1.088
				c-2.198,0-3.723-1.495-3.723-3.753c0-2.257,1.48-3.797,3.627-3.797C301.17,476.462,302.584,477.994,302.591,480.229z
				 M297.477,479.563h3.175c-0.178-0.918-0.733-1.436-1.562-1.436C298.18,478.127,297.647,478.675,297.477,479.563z"/>
			<path id="XMLID_325_" style="fill:#231F20;" d="M310.937,480.237c0,2.154-1.495,3.775-3.471,3.775
				c-0.962,0-1.643-0.378-2.109-0.933v3.708h-1.924v-10.133h1.887v0.792c0.466-0.585,1.155-0.984,2.139-0.984
				C309.442,476.462,310.937,478.083,310.937,480.237z M305.26,480.237c0,1.132,0.747,1.976,1.843,1.976
				c1.14,0,1.85-0.881,1.85-1.976c0-1.095-0.711-1.976-1.85-1.976C306.007,478.26,305.26,479.104,305.26,480.237z"/>
			<path id="XMLID_322_" style="fill:#231F20;" d="M314.04,474.308c0,0.696-0.54,1.229-1.236,1.229
				c-0.696,0-1.229-0.533-1.229-1.229c0-0.696,0.533-1.243,1.229-1.243C313.5,473.065,314.04,473.612,314.04,474.308z
				 M313.781,483.826h-1.932v-7.172h1.932V483.826z"/>
			<path id="XMLID_320_" style="fill:#231F20;" d="M317.005,479.208l2.702-2.554h2.368l-3.479,3.375l3.501,3.797h-2.376
				l-2.716-2.901v2.901h-1.932v-10.658h1.932V479.208z"/>
		</g>
		<g>
			<path style="fill:#231F20;" d="M185.385,483.761v-1.055c-0.527,0.718-1.391,1.23-2.387,1.23c-1.846,0-3.149-1.406-3.149-3.706
				c0-2.256,1.289-3.721,3.149-3.721c0.952,0,1.816,0.469,2.387,1.245v-3.765h1.099v9.77H185.385z M185.385,481.842v-3.208
				c-0.395-0.615-1.245-1.143-2.124-1.143c-1.421,0-2.27,1.172-2.27,2.739c0,1.567,0.85,2.724,2.27,2.724
				C184.14,482.956,184.99,482.458,185.385,481.842z"/>
			<path style="fill:#231F20;" d="M187.904,480.217c0-2.051,1.465-3.706,3.486-3.706c2.139,0,3.398,1.67,3.398,3.794v0.279h-5.727
				c0.088,1.333,1.025,2.446,2.549,2.446c0.805,0,1.626-0.322,2.182-0.893l0.527,0.718c-0.703,0.703-1.655,1.084-2.812,1.084
				C189.413,483.937,187.904,482.428,187.904,480.217z M191.376,477.419c-1.509,0-2.256,1.274-2.314,2.358h4.643
				C193.69,478.722,192.987,477.419,191.376,477.419z"/>
			<path style="fill:#231F20;" d="M195.58,482.824l0.571-0.791c0.469,0.542,1.362,1.011,2.329,1.011c1.084,0,1.67-0.513,1.67-1.216
				c0-1.714-4.38-0.659-4.38-3.281c0-1.098,0.952-2.036,2.636-2.036c1.201,0,2.051,0.454,2.622,1.026l-0.513,0.762
				c-0.424-0.513-1.201-0.894-2.109-0.894c-0.967,0-1.567,0.483-1.567,1.113c0,1.552,4.38,0.527,4.38,3.281
				c0,1.187-0.952,2.139-2.783,2.139C197.279,483.937,196.297,483.586,195.58,482.824z"/>
			<path style="fill:#231F20;" d="M202.45,474.943c0-0.41,0.337-0.747,0.732-0.747c0.41,0,0.747,0.337,0.747,0.747
				c0,0.41-0.337,0.732-0.747,0.732C202.786,475.676,202.45,475.353,202.45,474.943z M202.64,483.761v-7.075h1.099v7.075H202.64z"/>
			<path style="fill:#231F20;" d="M205.555,485.578l0.556-0.82c0.586,0.703,1.289,0.967,2.3,0.967c1.172,0,2.27-0.571,2.27-2.124
				v-1.011c-0.513,0.718-1.377,1.26-2.373,1.26c-1.845,0-3.149-1.377-3.149-3.662c0-2.27,1.289-3.677,3.149-3.677
				c0.952,0,1.802,0.469,2.373,1.245v-1.069h1.098v6.87c0,2.344-1.641,3.076-3.369,3.076
				C207.21,486.632,206.389,486.398,205.555,485.578z M210.681,481.725v-3.091c-0.381-0.615-1.23-1.143-2.109-1.143
				c-1.421,0-2.27,1.128-2.27,2.695c0,1.553,0.849,2.695,2.27,2.695C209.451,482.882,210.3,482.341,210.681,481.725z"/>
			<path style="fill:#231F20;" d="M218.386,483.761v-4.629c0-1.245-0.63-1.64-1.582-1.64c-0.865,0-1.685,0.527-2.095,1.099v5.17
				h-1.099v-7.075h1.099v1.025c0.498-0.586,1.465-1.201,2.519-1.201c1.48,0,2.256,0.747,2.256,2.285v4.966H218.386z"/>
			<path style="fill:#231F20;" d="M220.905,480.217c0-2.051,1.465-3.706,3.486-3.706c2.139,0,3.398,1.67,3.398,3.794v0.279h-5.727
				c0.088,1.333,1.025,2.446,2.549,2.446c0.806,0,1.626-0.322,2.183-0.893l0.527,0.718c-0.703,0.703-1.655,1.084-2.812,1.084
				C222.414,483.937,220.905,482.428,220.905,480.217z M224.377,477.419c-1.509,0-2.256,1.274-2.314,2.358h4.643
				C226.691,478.722,225.988,477.419,224.377,477.419z"/>
			<path style="fill:#231F20;" d="M234.323,483.761v-1.055c-0.527,0.718-1.391,1.23-2.388,1.23c-1.845,0-3.149-1.406-3.149-3.706
				c0-2.256,1.289-3.721,3.149-3.721c0.952,0,1.817,0.469,2.388,1.245v-3.765h1.098v9.77H234.323z M234.323,481.842v-3.208
				c-0.396-0.615-1.245-1.143-2.124-1.143c-1.421,0-2.27,1.172-2.27,2.739c0,1.567,0.849,2.724,2.27,2.724
				C233.077,482.956,233.927,482.458,234.323,481.842z"/>
			<path style="fill:#231F20;" d="M240.665,483.761v-9.77h1.099v3.765c0.572-0.776,1.421-1.245,2.388-1.245
				c1.845,0,3.149,1.465,3.149,3.721c0,2.299-1.304,3.706-3.149,3.706c-0.996,0-1.86-0.513-2.388-1.23v1.055H240.665z
				 M243.872,482.956c1.436,0,2.285-1.157,2.285-2.724c0-1.568-0.85-2.739-2.285-2.739c-0.864,0-1.728,0.527-2.109,1.143v3.208
				C242.144,482.458,243.008,482.956,243.872,482.956z"/>
			<path style="fill:#231F20;" d="M248.501,485.534c0.161,0.073,0.425,0.117,0.601,0.117c0.483,0,0.805-0.161,1.055-0.747
				l0.469-1.069l-2.959-7.148h1.187l2.358,5.801l2.344-5.801h1.201l-3.545,8.51c-0.425,1.025-1.143,1.421-2.08,1.435
				c-0.234,0-0.601-0.044-0.806-0.103L248.501,485.534z"/>
		</g>
	</g>
</g>
</svg>
