<?xml version="1.0" encoding="UTF-8" standalone="no"?>
<!-- Generator: Adobe Illustrator 27.5.0, SVG Export Plug-In . SVG Version: 6.00 Build 0)  -->

<svg
   version="1.1"
   x="0px"
   y="0px"
   viewBox="0 0 500 500"
   style="enable-background:new 0 0 500 500;"
   xml:space="preserve"
   id="svg229"
   sodipodi:docname="concept.svg"
   inkscape:version="1.1.2 (b8e25be833, 2022-02-05)"
   xmlns:inkscape="http://www.inkscape.org/namespaces/inkscape"
   xmlns:sodipodi="http://sodipodi.sourceforge.net/DTD/sodipodi-0.dtd"
   xmlns="http://www.w3.org/2000/svg"
   xmlns:svg="http://www.w3.org/2000/svg"><defs
   id="defs233" /><sodipodi:namedview
   id="namedview231"
   pagecolor="#505050"
   bordercolor="#eeeeee"
   borderopacity="1"
   inkscape:pageshadow="0"
   inkscape:pageopacity="0"
   inkscape:pagecheckerboard="0"
   showgrid="false"
   inkscape:zoom="1.616"
   inkscape:cx="249.69059"
   inkscape:cy="270.7302"
   inkscape:window-width="1920"
   inkscape:window-height="1001"
   inkscape:window-x="-9"
   inkscape:window-y="-9"
   inkscape:window-maximized="1"
   inkscape:current-layer="svg229" />
<g
   id="BACKGROUND"
   style="display:none">
	<rect
   style="fill:#ffffff"
   width="500"
   height="500"
   id="rect2"
   x="0"
   y="0" />
</g>
<g
   id="OBJECTS">
	<path
   style="fill:#EDF0F6;"
   d="M109.086,397.838c0,0-98.394-70.441-49.749-120.777c48.645-50.336,165.149-17.836,195.531-36.227   c30.382-18.392,98-86.043,154.01-48.238c51.104,34.495-13.511,89.92,4.225,124.123c19.315,37.249,20.144,52.82,10.789,81.119   H109.086z"
   id="path5" />
	<g
   id="g13">
		
			<line
   style="fill:none;stroke:#657380;stroke-width:1.0299;stroke-linecap:round;stroke-linejoin:round;stroke-miterlimit:10;"
   x1="96.409"
   y1="398.367"
   x2="316.117"
   y2="398.367"
   id="line7" />
		
			<line
   style="fill:none;stroke:#657380;stroke-width:1.0299;stroke-linecap:round;stroke-linejoin:round;stroke-miterlimit:10;"
   x1="406.246"
   y1="398.367"
   x2="456.261"
   y2="398.367"
   id="line9" />
		
			<line
   style="fill:none;stroke:#657380;stroke-width:1.0299;stroke-linecap:round;stroke-linejoin:round;stroke-miterlimit:10;"
   x1="36.674"
   y1="398.367"
   x2="61.551"
   y2="398.367"
   id="line11" />
	</g>
	<g
   id="g23">
		<g
   id="g19">
			<path
   style="fill:#EAAB73;"
   d="M315.536,277.629c-0.542,2.66-3.137,4.378-5.797,3.836c-2.66-0.542-4.378-3.137-3.836-5.797     c0.542-2.66,3.137-4.378,5.797-3.836C314.361,272.373,316.078,274.968,315.536,277.629z"
   id="path15" />
			<path
   style="fill:#EAAB73;"
   d="M318.137,280.665l-5.01-1.02c-1.309-0.267-2.161-1.555-1.895-2.864v0     c0.267-1.309,1.555-2.161,2.864-1.895l5.01,1.02c1.309,0.266,2.162,1.555,1.895,2.864l0,0     C320.735,280.078,319.446,280.931,318.137,280.665z"
   id="path17" />
		</g>
		<path
   style="fill:#233241;"
   d="M342.818,287.232c-0.118-0.012-0.237-0.029-0.356-0.051l-27.519-5.026l1.643-8.995l24.652,4.503    c5.175-7.317,12.502-15.248,12.502-15.248l0,0l9.181,0.616c0.317,2.216-1.603,2.169-15.912,22.301    C346.051,286.68,344.446,287.398,342.818,287.232z"
   id="path21" />
	</g>
	<g
   id="g37">
		<path
   style="fill:#5062E5;"
   d="M249.364,398.022L249.364,398.022c-18.225,0-33-14.775-33-33v-25.728h66v25.728    C282.364,383.247,267.59,398.022,249.364,398.022z"
   id="path25" />
		<path
   style="fill:#5062E5;"
   d="M279.367,239.878c3.427-2.729,0.681-7.639,0.681-7.639h0.007c-0.906-2.049-1.419-4.31-1.419-6.695    c0-9.155,7.422-16.576,16.576-16.576c9.155,0,16.576,7.421,16.576,16.576c0,2.384-0.513,4.646-1.419,6.695h0.007    c0,0-2.746,4.91,0.681,7.639h26.322c-5.396,27.219-24.776,43.183-39.84,59.681c-16.668,18.255-15.542,36.584-15.37,37.785    c1.289,8.996-33.202,7.454-33.202,7.454v-104.92H279.367z"
   id="path27" />
		<path
   style="fill:#77D0FA;"
   d="M235.772,164.591c2.384,0,4.646,0.513,6.695,1.419v-0.007c0,0,3.736,2.087,6.502,0.346v-31.492    c3.216,0,6.431,0.27,9.612,0.81c41.724,7.082,71.875,29.128,78.961,73.415c1.88,11.753,1.608,21.876-0.161,30.796h-26.322    c-3.427-2.729-0.681-7.639-0.681-7.639h-0.007c0.906-2.049,1.419-4.31,1.419-6.695c0-9.155-7.421-16.576-16.576-16.576    c-9.155,0-16.576,7.421-16.576,16.576c0,2.384,0.513,4.646,1.419,6.695h-0.007c0,0,2.746,4.91-0.681,7.639h-30.399v-43.892    c-2.766-1.742-6.502,0.345-6.502,0.345v-0.007c-2.049,0.906-4.31,1.419-6.695,1.419c-9.155,0-16.576-7.421-16.576-16.576    C219.195,172.013,226.617,164.591,235.772,164.591z"
   id="path29" />
		<path
   style="fill:#6BADF8;"
   d="M160.556,239.878h24.813c3.427-2.729,0.682-7.639,0.682-7.639h0.007    c-0.906-2.049-1.42-4.31-1.42-6.695c0-9.155,7.421-16.576,16.576-16.576c9.155,0,16.576,7.421,16.576,16.576    c0,2.384-0.513,4.646-1.419,6.695h0.007c0,0-2.745,4.91,0.681,7.639h31.908v33.796c2.66,1.076,5.824-0.687,5.824-0.687v0.007    c2.049-0.906,4.31-1.419,6.695-1.419c9.155,0,16.576,7.421,16.576,16.576c0,9.155-7.421,16.576-16.576,16.576    c-2.384,0-4.646-0.513-6.695-1.419v0.007c0,0-3.164-1.763-5.824-0.688v42.171c0,0-33.192,1.542-33.202-7.454    c-0.001-1.213,1.298-19.529-15.37-37.785C185.332,283.061,165.952,267.097,160.556,239.878z"
   id="path31" />
		<path
   style="fill:#F1D34D;"
   d="M281.92,350.333h-67.162c-3.682,0-6.667-2.985-6.667-6.667l0,0c0-3.682,2.985-6.667,6.667-6.667    h67.162c3.682,0,6.667,2.985,6.667,6.667l0,0C288.586,347.348,285.602,350.333,281.92,350.333z"
   id="path33" />
		<path
   style="fill:#F1D34D;"
   d="M281.92,373.695h-67.162c-3.682,0-6.667-2.985-6.667-6.667l0,0c0-3.682,2.985-6.667,6.667-6.667    h67.162c3.682,0,6.667,2.985,6.667,6.667l0,0C288.586,370.71,285.602,373.695,281.92,373.695z"
   id="path35" />
	</g>
	<g
   id="g99">
		<polygon
   style="fill:#4F65E9;"
   points="354.609,303.306 351.704,313.356 382.27,316.084 381.685,303.339   "
   id="polygon39" />
		<polygon
   style="fill:#5062E5;"
   points="367.988,310.39 356.946,341.161 355.438,388.691 344.559,388.534 344.205,338.988     352.498,310.647   "
   id="polygon41" />
		<polygon
   style="opacity:0.66;fill:#C6C6C6;"
   points="366.438,314.708 358.499,313.668 362.77,324.93   "
   id="polygon43" />
		<polygon
   style="fill:#5062E5;"
   points="382.273,314.013 383.331,342.324 390.281,389.233 379.048,389.091 369.707,343.116     366.243,310.384   "
   id="polygon45" />
		<g
   id="g51">
			<path
   style="fill:#2B3C50;"
   d="M346.139,388.46l7.423,0.214l-0.184,10.64l-21.105-0.609l0,0c0.21-1.665,1.38-2.941,3.023-3.282     l10.541-2.184L346.139,388.46z"
   id="path47" />
			
				<rect
   x="332.245"
   y="399.009"
   transform="matrix(0.9996 0.0288 -0.0288 0.9996 11.6751 -9.7212)"
   style="fill:#C4C9E7;"
   width="21.114"
   height="1.644"
   id="rect49" />
		</g>
		<g
   id="g57">
			<path
   style="fill:#2B3C50;"
   d="M381.355,390.105l7.041-0.68l1.091,10.078l-19.959,0.29l0,0c0-1.598,0.954-2.944,2.467-3.461     l9.642-1.674L381.355,390.105z"
   id="path53" />
			<polygon
   style="fill:#C4C9E7;"
   points="389.487,399.503 369.528,399.793 369.678,401.352 389.637,401.061    "
   id="polygon55" />
		</g>
		<path
   style="fill:#2B3C50;"
   d="M369.808,260.075l0.894,0.18c3.927,0.789,7.003,3.848,7.816,7.77l5.051,36.27    c-13.717,6.858-30.487-1.001-30.487-1.001l-2.079-33.735c-0.328-3.722,1.734-7.243,5.141-8.777l0,0L369.808,260.075z"
   id="path59" />
		<path
   style="fill:#E59924;"
   d="M357.298,260.716l11.611-0.602c0,0-0.318,5.119-7.296,4.79    C355.92,264.636,357.298,260.716,357.298,260.716z"
   id="path61" />
		<g
   id="g67">
			<path
   style="fill:#E59924;"
   d="M333.619,290.324c-0.283,2.7-2.701,4.659-5.401,4.376c-2.7-0.283-4.659-2.701-4.376-5.401     c0.283-2.7,2.701-4.659,5.401-4.376C331.943,285.206,333.902,287.624,333.619,290.324z"
   id="path63" />
			<path
   style="fill:#E59924;"
   d="M336.5,293.096l-5.085-0.533c-1.328-0.139-2.301-1.34-2.162-2.668l0,0     c0.139-1.328,1.34-2.301,2.668-2.162l5.085,0.533c1.328,0.139,2.301,1.34,2.162,2.668l0,0     C339.029,292.262,337.828,293.235,336.5,293.096z"
   id="path65" />
		</g>
		<path
   style="fill:#2B3C50;"
   d="M333.65,294.836l0.337-9.137l25.181,0.93l9.385-20.229c1.129-2.258,3.874-3.174,6.133-2.046l0,0    c2.259,1.129,3.174,3.874,2.046,6.133l-10.701,22.863c-0.801,1.604-2.466,2.591-4.258,2.525L333.65,294.836z"
   id="path69" />
		
			<rect
   x="347.673"
   y="379.529"
   transform="matrix(0.0354 -0.9994 0.9994 0.0354 -48.455 722.4946)"
   style="fill:#7286F2;"
   width="4.757"
   height="13.64"
   id="rect71" />
		<polygon
   style="fill:#7286F2;"
   points="377.119,385.53 391,384.708 391.75,389.406 377.869,390.227   "
   id="polygon73" />
		<path
   style="fill:#233241;"
   d="M352.603,295.536l8.129,0.302c2.287-0.066,4.356-1.376,5.395-3.414l9.765-20.14    c-3.926,11.811-8.965,23.801-8.965,23.801c-0.618,1.53-2.153,2.487-3.799,2.37l-10.393-0.787L352.603,295.536z"
   id="path75" />
		<g
   id="g97">
			<polygon
   style="fill:#E59924;"
   points="367.046,263.311 358.707,262.606 360.017,244.994 368.356,245.699    "
   id="polygon77" />
			<path
   style="fill:#CC8420;"
   d="M358.962,259.185c0,0,7.654,1.497,8.581-11.194l-8.405,8.818L358.962,259.185z"
   id="path79" />
			<path
   style="fill:#E59924;"
   d="M357.316,256.852L357.316,256.852c-5.271-0.377-9.238-4.956-8.861-10.227l0.548-7.665     c0.166-2.319,2.18-4.064,4.499-3.898l14.89,1.065l-0.849,11.863C367.166,253.262,362.587,257.229,357.316,256.852z"
   id="path81" />
			<path
   style="fill:#222C38;"
   d="M368.316,246.55L365,246.335l0.012-4.768c0,0-0.203-3.194,1.977-3.325l-17.788-0.898     c0,0-5.381-0.81-3.977-6.256c0.802-3.112,3.6-4.376,4.881-4.263c0.976,0.086,1.604,1.672,1.601,2.652v0.002     c0,0,17.552-3.365,18.192,3.87c0.511,5.779-1.06,7.069-1.06,7.069L368.316,246.55z"
   id="path83" />
			<path
   style="fill:#222C38;"
   d="M368.63,233.621c0,0,4.153-0.216,4.489,3.458c0.582,6.374-4.802,9.471-4.802,9.471l0.076-10.422     L368.63,233.621z"
   id="path85" />
			<path
   style="fill:#E59924;"
   d="M372.098,246.219c-0.466,1.594-2.136,2.508-3.73,2.042c-1.594-0.466-2.508-2.136-2.042-3.73     c0.466-1.594,2.136-2.508,3.73-2.041C371.65,242.955,372.564,244.625,372.098,246.219z"
   id="path87" />
			<path
   style="fill:#222C38;"
   d="M350.901,230.473c0,0,1.515-2.984,2.878-3.214c1.362-0.23-0.611,3.713-0.611,3.713     L350.901,230.473z"
   id="path89" />
			<path
   style="fill:#FFFFFF;"
   d="M358.962,259.185"
   id="path91" />
			<path
   style="fill:#222C38;"
   d="M368.625,235.27c-0.082,0-0.164-0.037-0.22-0.106c-0.099-0.122-0.079-0.299,0.042-0.398     c2.095-1.697,2.04-3.958,2.04-3.981c-0.006-0.157,0.116-0.288,0.271-0.294c0.004,0,0.009,0,0.011,0     c0.151,0,0.277,0.119,0.283,0.271c0.004,0.103,0.076,2.563-2.249,4.444C368.751,235.249,368.688,235.27,368.625,235.27z"
   id="path93" />
			<path
   style="fill:#222C38;"
   d="M369.423,235.527c-0.011,0-0.023-0.002-0.035-0.003c-0.155-0.018-0.266-0.161-0.246-0.316     c0.275-2.236,3.576-2.588,3.715-2.602c0.01,0,0.02-0.001,0.028-0.001c0.144,0,0.267,0.11,0.283,0.256     c0.016,0.155-0.099,0.295-0.254,0.311c-0.03,0.003-2.989,0.321-3.21,2.108C369.688,235.421,369.565,235.527,369.423,235.527z"
   id="path95" />
		</g>
	</g>
	<g
   id="g105">
		<path
   style="fill:#EDF0F6;"
   d="M71.391,142.831c0,0,2.42-2.784,3.904-4.06c2.672-2.298,5.736-6.359,15.534-3.366    c0.762,0.233,1.499,0.541,2.233,0.852c0.864,0.366,3.54,0.375,6.28-1.801c4.355-3.458,6.058-6.066,12.023-6.148    c6.942-0.094,8.033,8.559,13.429,10.774c3.433,1.41,12.492,2.811,14.365,3.435L71.391,142.831z"
   id="path101" />
		<path
   style="fill:#EDF0F6;"
   d="M293.524,101.983c0,0,4.086-4.7,6.59-6.853c4.51-3.879,9.682-10.734,26.222-5.682    c1.286,0.393,2.531,0.914,3.769,1.438c1.458,0.618,5.975,0.634,10.601-3.039c7.351-5.837,10.226-10.241,20.296-10.378    c11.718-0.159,13.561,14.449,22.669,18.188c5.796,2.379,21.087,4.745,24.25,5.799L293.524,101.983z"
   id="path103" />
	</g>
	<g
   id="g187">
		<path
   style="fill:#ECBE2D;"
   d="M149.319,198.917c-8.99-43.94,11.447-75.203,47.991-96.548c2.786-1.627,5.699-3.014,8.708-4.148    l11.108,29.468c-1.974,2.605-6.206,1.97-6.206,1.97l0.002,0.007c-2.237-0.126-4.534,0.192-6.765,1.033    c-8.566,3.229-12.893,12.791-9.664,21.358c3.229,8.566,12.791,12.893,21.358,9.664c2.231-0.841,4.166-2.119,5.764-3.69    l0.003,0.007c0,0,2.76-3.271,5.962-2.616l15.482,41.071l-29.857,11.254c-4.169-1.345-3.332-6.908-3.332-6.908l-0.007,0.003    c0.126-2.237-0.192-4.534-1.033-6.765c-3.229-8.566-12.791-12.893-21.358-9.664c-8.566,3.229-12.893,12.791-9.664,21.358    c0.841,2.231,2.119,4.166,3.69,5.764l-0.007,0.003c0,0,4.301,3.626,2.057,7.388l-23.219,8.752    C155.531,219.955,151.705,210.579,149.319,198.917z"
   id="path107" />
		<g
   id="g135">
			<path
   style="fill:#5374F4;"
   d="M73.55,399.133c0.763,0,1.448-0.461,1.615-1.136l52.493-212.106     c0.193-0.778-0.377-1.544-1.269-1.71c-0.885-0.18-1.773,0.326-1.966,1.104L71.93,397.391c-0.193,0.778,0.377,1.544,1.269,1.71     C73.317,399.123,73.435,399.133,73.55,399.133z"
   id="path109" />
			<path
   style="fill:#5374F4;"
   d="M112.006,399.133c0.763,0,1.448-0.461,1.615-1.136l52.691-212.106     c0.193-0.776-0.374-1.542-1.269-1.71c-0.892-0.18-1.773,0.326-1.966,1.104l-52.691,212.106c-0.193,0.776,0.374,1.542,1.269,1.71     C111.773,399.123,111.891,399.133,112.006,399.133z"
   id="path111" />
			<path
   style="fill:#5374F4;"
   d="M123.236,198.354h38.645c0.914,0,1.655-0.645,1.655-1.439c0-0.794-0.742-1.439-1.655-1.439     h-38.645c-0.914,0-1.655,0.645-1.655,1.439C121.581,197.709,122.323,198.354,123.236,198.354z"
   id="path113" />
			<path
   style="fill:#5374F4;"
   d="M119.028,215.316h38.645c0.914,0,1.655-0.645,1.655-1.439c0-0.794-0.742-1.439-1.655-1.439     h-38.645c-0.914,0-1.655,0.645-1.655,1.439C117.373,214.671,118.115,215.316,119.028,215.316z"
   id="path115" />
			<path
   style="fill:#5374F4;"
   d="M114.818,232.277h38.645c0.914,0,1.655-0.645,1.655-1.439c0-0.794-0.742-1.439-1.655-1.439     h-38.645c-0.914,0-1.655,0.645-1.655,1.439C113.163,231.633,113.904,232.277,114.818,232.277z"
   id="path117" />
			<path
   style="fill:#5374F4;"
   d="M110.61,249.241h38.642c0.914,0,1.655-0.645,1.655-1.439c0-0.794-0.742-1.439-1.655-1.439H110.61     c-0.914,0-1.655,0.645-1.655,1.439C108.955,248.596,109.696,249.241,110.61,249.241z"
   id="path119" />
			<path
   style="fill:#5374F4;"
   d="M106.4,266.203h38.645c0.914,0,1.655-0.645,1.655-1.439c0-0.794-0.742-1.439-1.655-1.439H106.4     c-0.914,0-1.655,0.645-1.655,1.439C104.744,265.558,105.486,266.203,106.4,266.203z"
   id="path121" />
			<path
   style="fill:#5374F4;"
   d="M102.189,283.165h38.645c0.914,0,1.655-0.645,1.655-1.439c0-0.794-0.742-1.439-1.655-1.439     h-38.645c-0.914,0-1.655,0.645-1.655,1.439C100.534,282.52,101.276,283.165,102.189,283.165z"
   id="path123" />
			<path
   style="fill:#5374F4;"
   d="M97.981,300.129h38.645c0.914,0,1.655-0.645,1.655-1.439c0-0.794-0.742-1.439-1.655-1.439H97.981     c-0.914,0-1.655,0.645-1.655,1.439C96.326,299.484,97.068,300.129,97.981,300.129z"
   id="path125" />
			<path
   style="fill:#5374F4;"
   d="M93.771,317.091h38.644c0.914,0,1.655-0.645,1.655-1.439c0-0.794-0.742-1.439-1.655-1.439H93.771     c-0.914,0-1.656,0.645-1.656,1.439C92.115,316.446,92.857,317.091,93.771,317.091z"
   id="path127" />
			<path
   style="fill:#5374F4;"
   d="M89.563,334.052h38.642c0.914,0,1.655-0.645,1.655-1.439c0-0.794-0.742-1.439-1.655-1.439H89.563     c-0.914,0-1.655,0.645-1.655,1.439C87.907,333.408,88.649,334.052,89.563,334.052z"
   id="path129" />
			<path
   style="fill:#5374F4;"
   d="M85.352,351.016h38.645c0.914,0,1.655-0.645,1.655-1.439c0-0.794-0.742-1.44-1.655-1.44H85.352     c-0.914,0-1.655,0.645-1.655,1.44C83.697,350.371,84.439,351.016,85.352,351.016z"
   id="path131" />
			<path
   style="fill:#5374F4;"
   d="M81.142,367.978h38.645c0.914,0,1.655-0.645,1.655-1.439c0-0.794-0.742-1.439-1.655-1.439H81.142     c-0.914,0-1.655,0.645-1.655,1.439C79.487,367.333,80.228,367.978,81.142,367.978z"
   id="path133" />
		</g>
		<g
   id="g183">
			<g
   id="g153">
				<polygon
   style="fill:#E59924;"
   points="110.854,212.875 119.644,213.219 120.537,195.494 111.747,195.15     "
   id="polygon137" />
				<path
   style="fill:#CC8420;"
   d="M112.344,199.092c0,0-0.529,9.776,7.444,11.267l0.305-4.646L112.344,199.092z"
   id="path139" />
				<path
   style="fill:#222C38;"
   d="M112.894,186.429c0,0-11.729,1.568-1.731,9.936L112.894,186.429z"
   id="path141" />
				<path
   style="fill:#E59924;"
   d="M121.809,208.219L121.809,208.219c5.549,0.293,10.285-3.969,10.577-9.518l0.658-12.489      l-20.095-1.059l-0.658,12.489C111.998,203.191,116.26,207.926,121.809,208.219z"
   id="path143" />
				<path
   style="fill:#222C38;"
   d="M130.605,187.515c0,0,2.306,1.463,2.103,5.308c0,0,4.103-4.791,1.646-7.627      c-0.62-0.715-1.572-1.056-2.518-1.032c-1.431,0.036-3.913,0.498-6.939,2.71C120.07,190.404,130.605,187.515,130.605,187.515z"
   id="path145" />
				<path
   style="fill:#222C38;"
   d="M131.262,185.632c0,0,0.236-8.919-11.757-7.701c-12.377,1.257-10.887,12.727-6.559,17.156      l2.432-1.62L131.262,185.632z"
   id="path147" />
				<path
   style="fill:#E59924;"
   d="M108.94,195.958c-0.092,1.744,1.247,3.232,2.991,3.324c1.744,0.092,3.232-1.247,3.324-2.991      c0.092-1.744-1.247-3.232-2.991-3.324C110.52,192.876,109.032,194.215,108.94,195.958z"
   id="path149" />
				<path
   style="fill:#222C38;"
   d="M114.484,192.568l0.258,4.919l2.616,0.114l0.217-4.997c10.237,1.039,14.204-6.458,14.204-6.458      c-1.266-0.067-13.557-3.554-17.304-2.448c-3.747,1.105-2.21,9.271-2.21,9.271l2.08-2.044L114.484,192.568z"
   id="path151" />
			</g>
			<g
   id="g181">
				<g
   id="g169">
					<path
   style="fill:#2B3C50;"
   d="M134.459,302.183l-6.496-1.182l-2.888,10.655l18.493,1.151l0.261-1.438       c0.125-1.486-0.658-2.812-2.024-3.411l-8.765-1.563L134.459,302.183z"
   id="path155" />
					<g
   id="g165">
						<path
   style="fill:#2B3C50;"
   d="M96.182,320.8l-6.539-0.913l-3.26,11.236l18.525,0.387l0.202-1.447        c0.063-1.49-0.773-2.783-2.163-3.325l-8.306-1.13L96.182,320.8z"
   id="path157" />
						<polygon
   style="fill:#DDBB3D;"
   points="103.866,256.104 98.475,283.648 86.01,322.166 97.792,322.849 111.54,284.734         119.759,256.104       "
   id="polygon159" />
						<polygon
   style="opacity:0.21;fill:#C6C6C6;"
   points="103.373,258.625 117.881,262.647 116.216,268.447 102.993,260.565               "
   id="polygon161" />
						<path
   style="fill:#F1D34D;"
   d="M124.961,251.355l18.664,5.788c3.294,0.547,5.358,3.863,4.394,7.06l-11.687,39.44        l-12.208-0.092l11.054-37.141l-27.472-5.975c-4.04-0.362-7.135-3.747-7.135-7.803v-1.276H124.961z"
   id="path163" />
					</g>
					<path
   style="fill:#5062E5;"
   d="M117.588,211.485L117.588,211.485c5.336,0.021,9.437,7.619,9.437,13.598l-2.064,26.272       l-26.67,1.14l4.268-31.273c0.635-5.718,4.22-9.736,8.51-9.718L117.588,211.485z"
   id="path167" />
				</g>
				<g
   id="g179">
					<g
   id="g173">
						<path
   style="fill:#E59924;"
   d="M166.199,219.376c2.262,2.096,5.795,1.96,7.891-0.302c2.096-2.262,1.96-5.795-0.302-7.891        c-2.262-2.096-5.795-1.96-7.891,0.302C163.801,213.748,163.937,217.281,166.199,219.376z"
   id="path171" />
					</g>
					<path
   style="fill:#E59924;"
   d="M141.425,235.198c-0.563,0-1.124-0.116-1.646-0.344l-25.947-11.352l3.293-7.527l24.6,10.763       l27.942-14.717l2.23,5.812l-29.356,17.21C142.175,235.147,141.799,235.198,141.425,235.198z"
   id="path175" />
					<path
   style="fill:#5062E5;"
   d="M131.029,220.864l-5.337,11.256l-11.427-6.358c-3.071-1.708-4.117-5.62-2.308-8.633l0,0       c1.522-2.535,4.618-3.648,7.406-2.661L131.029,220.864z"
   id="path177" />
				</g>
			</g>
		</g>
		<polygon
   style="opacity:0.66;fill:#C6C6C6;"
   points="126.627,230.148 126.128,236.504 113.285,225.083 125.692,232.12   "
   id="polygon185" />
	</g>
</g>

</svg>
