<?xml version="1.0" encoding="utf-8"?>
<!-- Generator: Adobe Illustrator 27.5.0, SVG Export Plug-In . SVG Version: 6.00 Build 0)  -->
<svg version="1.1" id="Слой_2" xmlns="http://www.w3.org/2000/svg" xmlns:xlink="http://www.w3.org/1999/xlink" x="0px" y="0px"
	 viewBox="0 0 3000 2000" style="enable-background:new 0 0 3000 2000;" xml:space="preserve">
<rect style="fill:#FFFFFF;" width="3000" height="2000"/>
<g>
	<path style="fill:#EBF2F9;" d="M2294.033,1828.553c0,0,254.178-6.046,362.79-160.1
		c196.765-279.084,108.091-523.826-242.214-505.608c-391.879,20.38-343.548-844.75-1022.098-428.224
		c-147.343,90.446-475.272-99.5-606.283,296.244c-31.154,94.105-265.117,100.659-416.324,176.126
		c-237.185,118.377-170.203,623.534,53.868,625.523C647.843,1834.502,2294.033,1828.553,2294.033,1828.553z"/>
	<path style="fill:#D2E4FF;" d="M1102.704,532.191h-12.169V421.017l-3.82-0.337v-44.184l0,0l1.102-3.658L555.808,212.575
		l-222.086,149.84l2.136,3.166c-7.203,0-13.096,5.893-13.096,13.096v76.394c0,7.203,5.893,13.096,13.096,13.096h111.316
		c7.203,0,13.096-5.893,13.096-13.096v-30.557h74.211v1405.641h87.307V424.514h359.137l100.118,107.678h-20.538
		c-7.203,0-13.096,5.894-13.096,13.096v13.096c0,7.203,5.893,13.096,13.096,13.096h42.198c7.203,0,13.096-5.893,13.096-13.096
		v-13.096C1115.8,538.085,1109.906,532.191,1102.704,532.191z M557.075,220.935l516.398,155.56H460.072
		c-1.049-6.172-6.439-10.914-12.898-10.914H342.688L557.075,220.935z M1043.354,424.514l39.54,3.497v94.953l-91.538-98.45H1043.354z
		"/>
	<path style="fill:#E27F2B;" d="M902.86,1829.92H518.75c18.5-13.65,84.89-61.26,145.02-86.97c24.92-10.65,48.76-17.54,67.67-16.69
		C791.42,1728.95,875.49,1803.97,902.86,1829.92z"/>
	<path style="fill:#E69D43;" d="M780.76,1829.92H396.65c26.16-19.311,148.14-106.55,212.69-103.66
		c16.84,0.76,35.58,7.221,54.43,16.69C712.06,1767.21,761.07,1811.25,780.76,1829.92z"/>
	<path style="fill:#EBF2F9;" d="M2639.092,612.492L2639.092,612.492l1.465-2.172l-152.339-102.782L2123.287,617.47l0.756,2.509l0,0
		v30.308l-2.62,0.232v76.26h-8.348c-4.94,0-8.983,4.043-8.983,8.983v8.983c0,4.94,4.043,8.983,8.983,8.983h28.946
		c4.94,0,8.982-4.043,8.982-8.983v-8.983c0-4.94-4.042-8.983-8.982-8.983h-14.088l68.675-73.861h246.35v964.196h59.889V652.917
		h50.905v20.96c0,4.941,4.042,8.983,8.982,8.983h76.357c4.941,0,8.983-4.042,8.983-8.983v-52.402
		C2648.075,616.535,2644.033,612.492,2639.092,612.492z M2487.349,513.273l147.059,99.22h-71.673c-4.43,0-8.128,3.253-8.847,7.486
		h-420.762L2487.349,513.273z M2126.663,720.449v-65.133l27.122-2.398h35.668L2126.663,720.449z"/>
	<g>
		<rect x="1412.845" y="263.605" style="fill:#D2E4FF;" width="503.836" height="1567.844"/>
		<g>
			<rect x="1412.845" y="479.936" style="opacity:0.5;fill:#AED3FF;" width="364.677" height="229.689"/>
			<rect x="1412.845" y="900.531" style="opacity:0.5;fill:#AED3FF;" width="364.677" height="229.689"/>
			<rect x="1412.845" y="1315.697" style="opacity:0.5;fill:#AED3FF;" width="364.677" height="229.689"/>
		</g>
		<polygon style="fill:#AED3FF;" points="2544.776,1543.916 2476.783,1543.916 2476.783,1331.52 1916.681,1331.52 1916.681,263.605 
			1777.521,263.605 1777.521,1832.331 1916.681,1832.331 1916.681,1831.449 2476.783,1831.449 2476.783,1831.449 2544.776,1831.449 
					"/>
	</g>
	<path style="fill:#283250;" d="M2778.497,1835.161H215.183c-1.386,0-2.52-1.134-2.52-2.52l0,0c0-1.386,1.134-2.52,2.52-2.52
		h2563.314c1.386,0,2.52,1.134,2.52,2.52l0,0C2781.017,1834.027,2779.883,1835.161,2778.497,1835.161z"/>
	<g>
		<path style="fill:#233862;" d="M2020.828,1830.163c0,0,1.001-21.702,6.821-33.343s52.384-3.638,52.384-3.638
			s10.731,19.417,9.276,36.878L2020.828,1830.163z"/>
		<path style="fill:#233862;" d="M1895.87,1830.163c0,0,1.001-21.702,6.821-33.343s52.384-3.638,52.384-3.638
			s10.731,19.417,9.276,36.878L1895.87,1830.163z"/>
		<path style="fill:#D9935C;" d="M2051.004,909.153c-5.816,4.212-58.463,31.692-58.463,31.692l-55.517-39.583
			c0,0,16.861-2.456,17.309-2.587c5.01-1.397,4.78-14.831,5.413-29.138c0.099-2.205,0.219-4.431,0.382-6.636l54.359-1.975
			l0.044,0.676c0.044,0.688,0.099,1.408,0.153,2.161l0.108,1.55c0.033,0.535,0.077,1.069,0.12,1.626
			c0.982,12.572,3.078,30.328,7.094,32.402C2024.288,900.521,2039.763,900.335,2051.004,909.153z"/>
		<path style="fill:#CB7D45;" d="M2014.913,866.94c-4.485,8.971-14.471,24.588-29.28,24.075
			c-14.144-0.502-22.197-13.358-25.887-21.477c0.099-2.205,0.219-4.431,0.382-6.636l54.359-1.975l0.044,0.676l0.153,2.161
			l0.108,1.55C2014.826,865.849,2014.87,866.384,2014.913,866.94z"/>
		<path style="fill:#2B478B;" d="M1953.662,741.706c0,0,26.221-26.109,57.154,0.529
			C2010.816,742.235,1992.424,738.418,1953.662,741.706z"/>
		<path style="fill:#B64C41;" d="M1943.93,837.748c0,0-8.299-17.193-13.426-37.212c-3.66-14.292-0.31-68.54,54.228-64.856
			c0,0,15.788,0.369,31.265,9.213c12.309,7.033,30.497,22.847,15.108,71.12l-3.723,16.196L1943.93,837.748z"/>
		<path style="fill:#D9935C;" d="M2020.227,860.533c-14.079,13.461-31.569,31.398-69.271-1.774
			c-7.376-6.49-6.876-16.468-7.306-30.798c-0.518-16.963-4.6-27.349-2.705-37.128c2.251-11.698,12.254-16.983,33.018-18.791
			c38.12-3.309,57.387,5.279,54.827,24.195C2023.078,838.456,2034.544,846.844,2020.227,860.533z"/>
		<path style="fill:#B64C41;" d="M1989.16,771.347c0,0,22.598-0.475,27.757,7.079s5.875,16.009,8.476,20.268
			c2.601,4.258,2.172,9.039,2.172,9.039l5.014-33.729l-30.585-6.08L1989.16,771.347z"/>
		<path style="fill:#9ED9F0;" d="M2120.959,957.401c0,0-9.648,28.44-48.772,33.645c-1.059,0.142-2.149,0.262-3.252,0.371H1909.6
			c0,0-0.295-0.087-0.852-0.262c-6.188-1.964-44.254-15.006-48.259-39.398c0,0,20.015-41.1,35.294-46.196
			c4.452-1.495,10.619-2.608,17.102-3.448c6.624-0.851,13.598-1.419,19.447-1.79c8.054-0.502,13.969-0.633,13.969-0.633
			s12.409,25.155,42.605,24.784c30.198-0.36,37.193-24.413,37.193-24.413s8.479,0.24,19.742,1.462
			c6.21,0.666,13.26,1.627,20.211,3.012c11.776,2.346,23.246,5.882,29.805,11.208
			C2113.319,929.932,2120.959,957.401,2120.959,957.401z"/>
		<path style="fill:#2B478B;" d="M2083.057,1177.36c-1.694-9.42-4.219-23.758-6.198-36.368c0.014-0.17,5.906-71.197,8.086-83.188
			c2.183-12.005-12.648-77.322-12.648-77.322c-3.448-9.997-9.298-13.052-13.784-13.052l7.541-62.894
			c-6.951-1.386-14.001-2.347-20.211-3.012l-3.612,65.906l-0.055,0.95c-8.262,0.458-18.563,1.015-28.156,1.44
			c-9.593,0.437-18.477,0.753-23.944,0.753c-11.12,0-36.636-1.277-53.584-2.205l-0.066-0.938l-4.092-67.107
			c-5.85,0.371-12.823,0.939-19.447,1.79l7.202,65.316v0.011c-4.747,0-10.204,8.425-10.957,13.107l-0.734,20.436
			c-3.587,10.287-11.019,33.141-12.252,49.181c-1.632,21.207,7.228,94.98,7.288,95.49c-0.323,8.795-0.947,20.034-2.148,30.908
			c-6.657,18.04-35.054,101.931-32.161,214.731c2.695,105.303,4.288,285.231,16.697,372.593c2.017,14.179,4.314,25.919,6.95,34.507
			c1.329,4.329,5.072,7.466,9.559,8.088c14.229,1.973,46.301,5.608,60.103,0.59c6.614-2.412,11.351-39.136,14.7-86.478
			c3.209-45.389,5.141-100.545,6.21-144.569c0.011,0,0.011-0.012,0.011-0.021c0.862-35.098,1.189-63.112,1.189-73.48
			c0-23.464,5.545-92.305,7.378-132.794c0.055-1.146,1.725-1.156,1.801-0.021c0,0.011,0,0.011,0,0.011
			c2.782,48.073,12.495,120.975,12.648,137.17c0.36,39.288-1.925,291.705,15.246,300.184c13.129,6.482,44.068,1.582,58.849-0.418
			c5.348-0.724,9.738-4.534,11.245-9.716c18.468-63.511,20.101-284.197,23.216-405.644
			C2117.771,1280.076,2090.216,1196.961,2083.057,1177.36z"/>
		<path style="fill:#D9935C;" d="M1938.345,1222.781c-5.456,4.365-23.277,2.543-30.186-3.273c-6.92-5.828-20.735-4.006-24.01-6.188
			c-0.229-0.152-64.574-76.404-71.548-108.489c-7.039-32.38,37.498-121.488,50.104-145.781c9.33,19.709,40.412,30.35,45.956,32.107
			c0.557,0.175,0.851,0.262,0.851,0.262h1.725c-10.487,28.353-41.842,79.394-53.923,98.624c-3.001,4.78-3.383,10.761-1.004,15.89
			c15.519,33.275,30.699,61.345,37.346,80.792c1.32,2.161,4.158,6.024,7.584,5.501c4.737-0.731,20.016-4.006,27.655,7.268
			C1936.533,1210.776,1943.802,1218.416,1938.345,1222.781z"/>
		<g>
			<path style="fill:#FFA412;" d="M2036.293,742.475c0,0-4.192-5.694-11.704-12.077c-1.19-1.027-2.471-2.065-3.832-3.092
				c-13.814-10.511-35.925-20.773-62.579-9.653c-7.223,3.012-13.229,7.101-18.215,11.837c-1.181,1.117-2.299,2.264-3.354,3.451
				c-23.11,25.641-21.153,65.852-21.153,65.852l133.354-1.426C2049.242,760.137,2036.293,742.475,2036.293,742.475z"/>
			<path style="fill:#E27F2B;" d="M2011.349,797.767c-0.374-5.609-2.926-51.619,13.24-67.354c-1.19-1.036-0.906-0.854-2.268-1.891
				c-17.237,18.091-18.345,63.401-18.276,69.322l-42.629,0.456c-1.264-32.66-19.289-65.181-21.453-68.811
				c-1.181,1.117-1.404,1.336-2.459,2.523c3.128,5.503,14.897,36.99,16.022,66.372l-38.071,0.407c0,0,35.518,9.182,62.269,8.85
				c26.751-0.333,71.085-10.276,71.085-10.276L2011.349,797.767z"/>
		</g>
		<path style="fill:#B64C41;" d="M1943.389,974.317c-13.642,26.192-52.384,31.103-52.384,31.103
			c12.551-30.558-12.735-40.194-28.375-71.482c-15.639-31.289,12.005-52.024,12.005-52.024
			c-17.102,3.274-20.375,26.192-20.375,26.192c-1.451-15.278,11.284-41.1,51.664-46.196c29.564-3.732,36.701-13.696,38.403-18.771
			c0.666,6.581,2.26,11.731,6.68,15.617c3.121,2.751,6.111,5.14,8.96,7.225c-0.066,1.19-0.12,2.379-0.175,3.558
			c-0.175,4.026-0.284,7.988-0.47,11.622c-5.282,6.297-5.129,12.998-4.234,17.211c0.557,2.619,1.397,4.278,1.397,4.278
			c4.234,5.882,6.384,11.667,7.006,17.451C1965.368,937.408,1953.615,954.684,1943.389,974.317z"/>
		<path style="fill:#233862;" d="M2082.751,1175.646l-5.894-34.649c-28.693,10.644-55.822,15.284-79.772,16.562
			c-2.815-5.196-7.963-9.013-14.204-9.916l-21.161-3.061c-8.353-1.208-16.216,3.141-19.886,10.242
			c-20.322-3.146-34.044-7.757-38.39-9.342l-0.011,0.186l-2.106,30.426v0.076c12.22,3.25,23.946,5.777,35.149,7.702l-0.625,4.233
			c-1.554,10.522,5.704,20.317,16.224,21.895l23.452,3.516c11.186,1.677,21.407-6.585,22.112-17.873l0.408-6.525
			C2042.752,1188.889,2072.459,1179.487,2082.751,1175.646z"/>
		<path style="fill:#D9935C;" d="M2168.497,1104.83c-6.974,32.085-71.319,108.337-71.548,108.489
			c-0.557,0.371-1.43,0.633-2.521,0.83c-0.043,0.011-0.076,0.011-0.119,0.021c-5.315,0.917-15.684,0.534-21.369,5.337
			c-6.908,5.816-24.74,7.639-30.197,3.273c-5.456-4.365,1.823-12.005,9.462-23.289c7.64-11.273,22.918-7.999,27.644-7.268
			c2.815,0.425,5.25-2.106,6.744-4.224c0.033-0.044,0.056-0.077,0.088-0.12c0.283-0.415,0.546-0.808,0.753-1.157
			c6.505-19.022,21.161-46.262,36.309-78.576c3.034-6.461,2.587-14.034-1.2-20.092c-10.117-16.162-30.656-49.743-43.872-76.687
			c-1.538-7.792-3.077-15.115-4.267-20.659c29.029-4.671,41.045-22.329,44.93-29.859
			C2133.051,987.468,2175.372,1073.203,2168.497,1104.83z"/>
	</g>
	<g id="P297LW_2_">
		<g>
			<path style="fill:#739AF0;" d="M2604.058,1243.146c-9.734,2.249-53.716,2.783-84.601-4.157
				c-6.438-1.441-12.32-3.209-17.188-5.359c-5.817-2.564-10.204-5.664-12.441-9.396c-3.492-5.816-9.877-25.723-17.386-51.827
				c-20.681-71.908-49.786-190.732-49.786-190.732s58.441,11.928,70.806,22.11c12.376,10.182,23.289,171.699,34.923,176.065
				c1.713,0.644,4.671,1.997,8.458,3.863c0.186,0.087,0.371,0.186,0.557,0.272c2.259,1.113,4.802,2.401,7.552,3.819
				c24.129,12.397,64.062,34.737,68.197,39.703C2618.605,1234.055,2618.245,1239.872,2604.058,1243.146z"/>
			<path style="fill:#739AF0;" d="M2491.923,1073.629c0-2.75-0.272-5.501-0.774-8.262c-7.52-41.351-67.313-83.694-68.492-83.694
				l-0.011,0.862c0,6.319-9.964,17.985-25.309,18.989c-18.203,1.191-40.671-9.193-40.671-19.681c-0.109,0-10.229,1.369-13.655,1.751
				c-14.592,1.659-43.708,9.538-56.183,18.967c-11.862,8.96,4.9,65.459,15.279,105.467c4.397,16.927,7.639,30.896,7.104,37.084
				c-0.263,3.022-2.979,44.09-5.402,81.238c-2.008,30.646-3.819,58.616-3.874,60.373c-0.131,3.481,17.178,15.672,46.239,24.883
				c7.018,2.227,14.733,4.277,23.05,5.98c14.918,3.066,31.79,5.042,50.146,4.977c6.002-0.022,11.688-0.327,17.058-0.862
				C2477.943,1317.629,2492.163,1270.32,2491.923,1073.629z"/>
			<path style="fill:#D9935C;" d="M2356.681,981.356c-0.351-16.061-0.086-35.237,2.084-51.438l64.104,10.476
				c0,0,0.068,19.571-0.213,41.279c0.038,0.005,1.743,20.134-23.059,23.081C2374.797,1007.7,2356.012,996.896,2356.681,981.356z"/>
			<path style="fill:#233862;" d="M2410.31,1830.168c-8.06-4.961-3.324-41.725-3.324-41.725s37.753-29.971,42.842-6.896
				s35.632,33.54,53.03,36.429c12.01,1.994,16.442,8.206,17.58,12.146L2410.31,1830.168z"/>
			<path style="fill:#4A75CB;" d="M2351.588,1198.041c0,61.475-29.793,44.908-47.778,28.309c2.423-37.148,4.125-168.73,4.125-168.73
				S2351.588,1110.003,2351.588,1198.041z"/>
			<path style="fill:#4A75CB;" d="M2544.951,1187.804c-1.189,8.622-14.81,33.723-25.494,51.185
				c-6.438-1.441-12.32-3.209-17.188-5.359c-5.817-2.564-10.204-5.664-12.441-9.396c-3.492-5.816-9.877-25.723-17.386-51.827
				c5.556-32.129,10.837-63.854,10.837-63.854l1.638-21.28c0,1.637,24.915,95.132,36.199,97.314c6.8,1.32,11.623-0.284,15.727-0.873
				c0.186,0.087,0.371,0.186,0.557,0.272C2539.658,1185.098,2542.201,1186.386,2544.951,1187.804z"/>
			<path style="fill:#233862;" d="M2294.628,1830.168c-8.06-4.961-3.324-41.725-3.324-41.725s37.753-29.971,42.842-6.896
				s35.632,33.54,53.03,36.429c12.01,1.994,16.374,8.206,17.512,12.146L2294.628,1830.168z"/>
			<path style="fill:#233862;" d="M2350.575,911.431c0,0-42.794-67.472,39.378-71.937c0,0,30.82,3.628,37.798-3.349
				c0,0,23.906,36.334,1.58,75.286C2407.006,950.384,2350.575,911.431,2350.575,911.431z"/>
			<path style="fill:#D9935C;" d="M2420.967,946.64c-6.229,4.901-24.493,9.768-29.772,10.337c0,0-27.083-6.039-32.006-9.009
				c-7.625-4.622-7.134-13.977-7.524-26.982c-0.469-15.394-2.021-27.484-0.301-36.359c2.042-10.617,8.773-16.656,27.618-18.297
				c34.595-3.003,49.007,5.66,49.609,17.258c0.156,3.115,0.302,6.084,0.402,8.897C2430.377,928.656,2427.52,941.483,2420.967,946.64
				z"/>
			<path style="fill:#233862;" d="M2429.306,904.342c-0.334,20.954-5.985,33.357-10.081,34.924
				c-4.713,1.804-10.262,3.297-16.046,4.288c-1.948,0.229-3.815,0.164-3.794-0.941c0.064-3.305,4.479-7.379,1.198-10.306
				c-3.442-3.07-21.918-4.104-23.406,2.594c-0.727,3.266,5.231,9.032,1.149,9.164c-1.239-0.21-2.455-0.45-3.615-0.752
				c-6.729-1.754-12.009-4.938-14.233-6.279c-7.624-4.622-7.124-11.708-8.813-24.609c-1.093-8.346-1.093-3.822,0,8.562
				c1.143,12.961-1.093,21.28,7.524,26.982c4.794,3.173,32.406,15.579,32.406,15.579c-0.402-6.57,23.143-12.006,29.371-16.907
				C2426.75,942.097,2429.652,931.581,2429.306,904.342z"/>
			<path style="fill:#2B478B;" d="M2299.939,1286.721c-0.131,3.481,17.178,15.672,46.24,24.883c2.34,0.748,4.766,1.463,7.257,2.156
				c0.033,0.01,0.057,0.037,0.06,0.071c2.711,31.81,10.051,76.745,16.671,120.111c0,0,0,0,0,0.011
				c1.714,11.241,3.372,22.373,4.9,33.145c4.038,28.506,7.061,54.479,7.388,73.174v0.196c0.143,8.578-7.093,29.979-7.639,34.923
				c-0.338,3.022-0.611,6.221-0.808,9.57c-0.786,13.392-0.47,29.216,0.611,46.109c4.747,73.73,24.228,168.066,31.179,172.082
				c13.816,7.988,38.961-0.011,51.74-1.877c5.293-0.786,9.527-5.293,9.255-10.63c-6.242-122.36,11.688-292.772,25.09-397.53
				c0.35-2.729,0.698-5.402,1.037-8.032c1.604-12.354,2.663-23.89,3.328-34.29c0.611-9.123,0.906-17.406,1.037-24.587
				c0.032-2.237,0.055-4.377,0.065-6.396c0.032-6.559-5.184-49.492-5.424-246.184l0,0c-0.005-4.544-3.727-8.262-8.27-8.262h-120.283
				c-11.624,0-20.976,9.512-20.83,21.135c0.188,15.004-0.354,35.954-3.611,55.946c-4.439,27.312-13.947,52.824-33.568,58.966
				c-0.021,0.006-0.038,0.019-0.048,0.039c-0.089,0.198-0.625,1.394-1.486,3.383c-0.004,0.01-0.007,0.021-0.007,0.03
				c-0.186,4.939-0.393,9.965-0.621,15.089c-0.044,1.026-0.088,2.063-0.143,3.1c-0.021,0.611-0.055,1.211-0.087,1.822
				c-0.044,1.037-0.099,2.084-0.153,3.133c-0.076,1.724-0.163,3.459-0.262,5.216c-0.076,1.375-0.152,2.751-0.229,4.137
				c-0.143,2.663-0.307,5.358-0.48,8.075c-0.044,0.873-0.099,1.735-0.164,2.619c-0.229,3.515-0.469,7.083-0.742,10.674
				c-0.076,1.103-0.163,2.204-0.251,3.317c-0.032,0.535-0.076,1.069-0.12,1.604c-0.108,1.408-0.218,2.815-0.338,4.234
				c-0.12,1.495-0.251,3.001-0.382,4.519C2299.372,1277.925,2300.082,1282.847,2299.939,1286.721z"/>
			<path style="fill:#233862;" d="M2374.62,1631.07c4.747,73.73,24.228,168.066,31.179,172.082
				c13.816,7.988,38.961-0.011,51.74-1.877c5.293-0.786,9.527-5.293,9.255-10.63c-6.242-122.36,11.688-292.772,25.09-397.53
				c0.35-2.729,0.698-5.402,1.037-8.032c1.604-12.354,2.663-23.89,3.328-34.29c-6.373-41.535-42.344-43.762-74.964,42.159
				C2425.323,1421.457,2373.539,1614.177,2374.62,1631.07z"/>
			<path style="fill:#2B478B;" d="M2298.591,1536.803c-0.988,8.523-10.964,28.791-12.161,33.617
				c-16.491,66.321-7.381,223.574,0.795,229.861c12.649,9.732,38.63,5.107,51.54,4.934c5.351-0.076,10.138-3.996,10.567-9.316
				c10.141-125.294,52.158-297.384,79.18-398.617c13.605-50.992,15.533-88.486,15.533-88.486s-126.288-77.374-139.945-35.105
				C2292.013,1311.092,2306.208,1471.357,2298.591,1536.803z"/>
			<g>
				<path style="fill:#FFA412;" d="M2427.216,820.626c-0.871-0.98-1.795-1.928-2.771-2.85c-4.119-3.913-9.08-7.29-15.046-9.779
					c-22.018-9.185-40.281-0.708-51.692,7.975c-1.125,0.849-2.183,1.705-3.166,2.554c-6.204,5.273-9.668,9.977-9.668,9.977
					s-10.695,14.589-10.338,45.342l110.154,1.178C2444.689,875.021,2446.307,841.806,2427.216,820.626z"/>
				<g>
					<path style="fill:#E27F2B;" d="M2365.446,874.162l6.052,0.068c0.126-1.754-0.172-41.733-15.083-57.254
						c-1.125,0.849-0.891,0.7-1.874,1.549C2368.701,832.192,2365.476,873.75,2365.446,874.162z"/>
					<path style="fill:#E27F2B;" d="M2413.314,874.686c1.258-24.476,10.632-50.197,13.162-54.769
						c-0.871-1.007-1.056-1.193-2.031-2.141c-1.754,3.022-16.122,29.657-17.641,56.84l-72.27-0.772c0,0,36.621,8.213,58.718,8.488
						c22.098,0.275,51.437-7.31,51.437-7.31L2413.314,874.686z"/>
				</g>
			</g>
			<path style="fill:#2B478B;" d="M2338.685,984.178c0,0,37.22,43.358,39.402,81.191l-18.962,1.006c0,0-4.775-42.136-32.786-79.605
				c0,0,4.382-1.062,5.839-1.351C2334.129,985.034,2338.685,984.178,2338.685,984.178z"/>
			<path style="fill:#2B478B;" d="M2431.479,983.583c26.661,40.347,29.521,82.604,29.521,82.604l19.139-0.329
				c-1.572-29.738-20.256-62.45-30.569-77.948C2449.569,987.911,2436.325,984.565,2431.479,983.583z"/>
			<g>
				<path style="fill:#FFA412;" d="M2389.918,1399.682h-15.369c-7.144-3.243-45.627-19.912-82.617-20.115
					c-26.689-0.146-57.102,19.793-58.932,20.008c-4.639,0.546,15.461,0.728,15.461,0.728s30.121-13.327,43.653-13.642
					c12.9-0.3,41.538,9.077,52.979,13.021h-86.136c-7.202,0-13.096,5.894-13.096,13.096v98.221c0,7.203,5.894,13.096,13.096,13.096
					h130.961c7.203,0,13.096-5.893,13.096-13.096v-98.221C2403.014,1405.575,2397.121,1399.682,2389.918,1399.682z"/>
				<path style="fill:#E27F2B;" d="M2347.355,1399.682h-130.96c-7.203,0-13.097,5.894-13.097,13.096v98.221
					c0,7.203,5.894,13.096,13.097,13.096h130.96c7.203,0,13.097-5.893,13.097-13.096v-98.221
					C2360.452,1405.575,2354.559,1399.682,2347.355,1399.682z"/>
			</g>
			<path style="fill:#739AF0;" d="M2308.896,1216.932c0.938,44.396-4.595,132.805-4.595,132.805h-26.192
				c-12.365-62.206-16.73-102.226-16.73-124.052c0-4.3,0.022-8.306,0.056-12.005c0.163-18.64,0.665-29.466,0.665-29.466
				c-4.911-112.942,17.647-173.337,24.729-181.653c7.094-8.316,39.507-15.792,39.507-15.792s10.706,31.202,15.071,56.302
				s-34.334,130.567-32.74,166.614C2308.765,1211.934,2308.84,1214.356,2308.896,1216.932z"/>
			<g>
				<path style="fill:#F1A34F;" d="M2648.843,1247.151h-21.183c-2.096,0-3.82,1.732-3.82,3.837v576.801
					c0,2.105,1.725,3.827,3.82,3.827h21.183c2.106,0,3.819-1.722,3.819-3.827v-576.801
					C2652.662,1248.884,2650.949,1247.151,2648.843,1247.151z"/>
				<g>
					<path style="fill:#2B478B;" d="M2648.843,1247.151h-21.183c-2.096,0-3.82,1.732-3.82,3.837v17.874h28.822v-17.874
						C2652.662,1248.884,2650.949,1247.151,2648.843,1247.151z"/>
					<path style="fill:#2B478B;" d="M2623.84,1827.789c0,2.105,1.725,3.827,3.82,3.827h21.183c2.106,0,3.819-1.722,3.819-3.827
						v-15.417h-28.822V1827.789z"/>
				</g>
				<path style="fill:#E27F2B;" d="M2638.432,1284.948c-1.2,0-2.183,0.981-2.183,2.183v507.707c0,1.201,0.982,2.184,2.183,2.184
					s2.183-0.982,2.183-2.184v-507.707C2640.614,1285.93,2639.632,1284.948,2638.432,1284.948z"/>
			</g>
			<path style="fill:#D9935C;" d="M2304.301,1349.736c0,0,5.533-88.409,4.595-132.805c-20.943-6.755-37.837-5.271-47.462-3.252
				c-0.033,3.699-0.056,7.705-0.056,12.005c0,21.826,4.365,61.846,16.73,124.052c-5.456,22.918-5.093,47.655,4.365,52.021
				s40.743-12.005,40.38-19.28C2322.489,1375.201,2304.301,1349.736,2304.301,1349.736z"/>
			<path style="fill:#D9935C;" d="M2662.67,1247.515c-2.553-9.362-4.45-14.551-10.895-19.099
				c-9.365-6.607-20.484-4.819-28.771-3.364c-6.335,1.112-12.969-1.014-15.749-2.079c-14.675-9.78-51.514-29.947-69.856-38.988
				c-12.518,7.258-27.895,21.619-35.13,49.645c28.232,12.453,90.023,12.234,101.788,9.517c0,0,10.892,7.916,19.178,8.644
				c3.139,0.275,7.093-0.637,10.792-1.876c5.821-1.949,12.07-0.008,16.256,5.167c4.027,4.979,9.284,7.713,11.466,7.713
				C2665.124,1262.793,2664.276,1253.409,2662.67,1247.515z"/>
		</g>
	</g>
	<g>
		<g>
			<g>
				<path style="fill:#FFA412;" d="M439.143,1361.127H308.183c-7.203,0-13.096,5.894-13.096,13.097v98.22
					c0,7.203,5.894,13.097,13.096,13.097h130.961c7.203,0,13.096-5.894,13.096-13.097v-98.22
					C452.239,1367.021,446.346,1361.127,439.143,1361.127z"/>
				<path style="fill:#E27F2B;" d="M481.705,1361.127H350.745c-7.203,0-13.096,5.894-13.096,13.097v98.22
					c0,7.203,5.893,13.097,13.096,13.097h130.961c7.203,0,13.096-5.894,13.096-13.097v-98.22
					C494.801,1367.021,488.908,1361.127,481.705,1361.127z"/>
			</g>
			<path style="fill:#FFA412;" d="M322.37,1361.673c0,0,31.103-22.918,35.741-22.372c4.638,0.546,12.004,2.183,12.004,2.183
				l-27.829,21.008L322.37,1361.673z"/>
		</g>
		<path style="fill:#9ED9F0;" d="M567.866,999.655c-12.474-9.429-41.591-17.309-56.182-18.968
			c-3.427-0.382-13.674-0.425-13.784-0.425c0,10.488-22.339,19.545-40.543,18.356c-15.344-1.004-25.308-12.67-25.308-18.989
			l-0.011-0.022c-1.179,0-60.973,41.504-68.492,82.854c-0.502,2.762-0.775,5.512-0.775,8.262
			c-0.24,196.691-12.157,226.856-8.392,226.791c0,0,22.372,17.21,63.887,21.281c5.369,0.534,11.055,0.84,17.058,0.861
			c18.356,0.066,35.229-1.909,50.147-4.977c8.316-1.702,16.032-3.754,23.049-5.98c29.062-9.211,46.371-21.4,46.24-24.882
			c-0.142-3.874,0.567-8.796,0.087-14.318c-1.811-20.823-2.805-39.016-3.568-57.339c31.54,2.771,49.732-0.35,49.732-0.35
			C626.842,1156.229,584.738,1012.402,567.866,999.655z M560.5,1159.754c-1.921,0.513-4.005,1.004-6.231,1.474
			c-1.539,0.338-3.143,0.654-4.802,0.96c-0.033-0.753-0.055-1.517-0.087-2.259c-0.426-10.303-0.906-20.113-1.583-29.444
			c-0.567-7.813-1.266-15.29-2.183-22.427C556.494,1136.749,564.079,1158.794,560.5,1159.754z"/>
		<path style="fill:#D9935C;" d="M432.048,979.625c0,0-46.196,6.998-66.086,23.573c-19.89,16.575-21.901,122.117-28.531,151.952
			c-1.304,5.856-2.475,15.315-3.484,26.837c-3.558,40.492,0.706,96.639,4.231,117.397c0.374,5.001,0.184,12.353-2.712,19.591
			c-5.093,12.732-6.184,16.37,2.91,23.646c9.095,7.275,18.917,17.462,25.829,14.552c5.332-2.246,4.386-37.605,3.675-53.657
			c7.979-34.302,20.903-98.684,33.067-161.073C417.175,1059.258,432.048,979.625,432.048,979.625z"/>
		<path style="fill:#9ED9F0;" d="M432.049,979.629c0,0-8.578,45.891-19.808,104.387c-3.558,18.563-7.388,38.393-11.295,58.43
			c-15.901,31.158-29.542,52.341-33.755,48.357c-8.6-8.119-23.693-9.124-33.242-8.818c1.004-11.524,2.183-20.976,3.481-26.836
			c0.524-2.357,1.015-5.184,1.495-8.403c5.566-37.542,8.72-128.286,27.033-143.543c9.636-8.021,25.439-13.806,39.179-17.647h0.011
			c7.017-1.954,13.5-3.394,18.345-4.376C428.731,980.131,432.049,979.629,432.049,979.629z"/>
		<path style="fill:#74ACBE;" d="M367.192,1190.804c-8.597-8.118-23.691-9.12-33.246-8.817c1.009-11.521,2.18-20.98,3.484-26.837
			c0.523-2.357,1.017-5.187,1.495-8.405l47.664-115.06C386.591,1031.685,371.406,1194.789,367.192,1190.804z"/>
		<path style="fill:#D9935C;" d="M498.019,978.452c0.351-16.061,0.086-35.238-2.084-51.438l-64.105,10.476
			c0,0,0,19.561,0.282,41.268c-0.039,0.006-0.063,0.009-0.063,0.009s-1.748,20.136,23.053,23.083
			C479.902,1004.796,498.687,993.992,498.019,978.452z"/>
		<path style="fill:#233862;" d="M444.37,1830.122c8.059-4.961,3.344-41.979,3.344-41.979s-37.754-29.97-42.842-6.896
			c-5.088,23.074-35.632,33.541-53.03,36.43c-12.01,1.994-15.706,8.663-16.843,12.604L444.37,1830.122z"/>
		<path style="fill:#74ACBE;" d="M554.279,1161.282c0,0-12.004,16.228-14.46,16.228c-2.456,0-32.74-11.731-24.053-37.967
			c8.687-26.236,29.848-31.485,29.848-31.485c0.917,7.137,1.615,14.613,2.183,22.427c0.676,9.331,1.157,19.142,1.583,29.444
			c0.033,0.742,0.054,1.506,0.087,2.259c1.659-0.306,3.263-0.622,4.802-0.96L554.279,1161.282z"/>
		<path style="fill:#233862;" d="M560.051,1830.122c8.059-4.961,3.345-41.979,3.345-41.979s-37.753-29.97-42.842-6.896
			c-5.088,23.074-35.632,33.541-53.03,36.43c-12.01,1.994-15.706,8.663-16.843,12.604L560.051,1830.122z"/>
		<path style="fill:#B64C41;" d="M504.124,908.527c0,0,42.794-67.472-39.378-71.938c0,0-30.82,3.629-37.797-3.349
			c0,0-23.907,36.333-1.581,75.286C447.693,947.48,504.124,908.527,504.124,908.527z"/>
		<path style="fill:#D9935C;" d="M433.732,943.736c6.229,4.901,24.492,9.768,29.773,10.337c0,0,27.082-6.039,32.005-9.009
			c7.625-4.621,7.134-13.976,7.524-26.982c0.469-15.394,2.021-27.484,0.301-36.359c-2.043-10.616-8.774-16.656-27.618-18.297
			c-34.595-3.003-49.007,5.66-49.61,17.259c-0.156,3.114-0.301,6.084-0.402,8.897C424.321,925.752,427.179,938.579,433.732,943.736z
			"/>
		<path style="fill:#B64C41;" d="M425.393,901.438c0.335,20.954,5.986,33.357,10.081,34.924c4.713,1.804,10.262,3.297,16.046,4.288
			c1.948,0.228,3.815,0.163,3.794-0.941c-0.064-3.305-4.479-7.379-1.198-10.306c3.442-3.07,21.919-4.104,23.407,2.594
			c0.725,3.266-5.232,9.032-1.15,9.164c1.239-0.211,2.455-0.45,3.615-0.752c6.729-1.755,12.009-4.938,14.233-6.279
			c7.625-4.622,7.125-11.708,8.813-24.61c1.093-8.346,1.093-3.822,0,8.563c-1.143,12.961,1.093,21.28-7.524,26.982
			c-4.794,3.173-32.407,15.579-32.407,15.579c0.402-6.569-23.142-12.006-29.371-16.907
			C427.949,939.193,425.046,928.677,425.393,901.438z"/>
		<path style="fill:#2B478B;" d="M554.759,1283.817c0.131,3.481-17.178,15.671-46.24,24.882c-2.34,0.748-4.766,1.463-7.257,2.157
			c-0.033,0.009-0.057,0.036-0.06,0.071c-2.71,31.809-10.051,76.744-16.671,120.11c0,0,0,0,0,0.012
			c-1.713,11.24-3.372,22.372-4.9,33.144c-4.038,28.506-7.061,54.479-7.388,73.174v0.196c-0.142,8.578,7.094,29.979,7.639,34.923
			c0.338,3.023,0.611,6.221,0.808,9.571c0.786,13.391,0.469,29.215-0.611,46.108c-4.748,73.731-24.228,168.066-31.18,172.082
			c-13.816,7.988-38.961-0.011-51.74-1.877c-5.293-0.785-9.527-5.293-9.254-10.63c6.242-122.36-11.688-292.772-25.09-397.53
			c-0.349-2.728-0.699-5.401-1.037-8.031c-1.604-12.354-2.663-23.89-3.329-34.29c-0.611-9.124-0.906-17.407-1.037-24.588
			c-0.033-2.237-0.054-4.376-0.065-6.396c-0.033-6.559,5.184-49.492,5.424-246.184l0,0c0.005-4.544,3.726-8.262,8.27-8.262h120.283
			c11.624,0,20.975,9.513,20.83,21.135c-0.188,15.005,0.354,35.954,3.611,55.947c4.439,27.311,13.947,52.823,33.568,58.965
			c0.022,0.007,0.038,0.019,0.047,0.04c0.089,0.197,0.625,1.394,1.487,3.383c0.004,0.009,0.006,0.02,0.007,0.03
			c0.185,4.938,0.393,9.965,0.622,15.088c0.044,1.026,0.087,2.063,0.142,3.1c0.022,0.611,0.055,1.211,0.087,1.822
			c0.044,1.037,0.098,2.085,0.153,3.133c0.076,1.724,0.164,3.459,0.262,5.217c0.077,1.375,0.153,2.75,0.229,4.136
			c0.142,2.663,0.306,5.358,0.48,8.076c0.043,0.873,0.098,1.735,0.164,2.619c0.229,3.514,0.47,7.083,0.742,10.673
			c0.077,1.103,0.164,2.205,0.251,3.318c0.033,0.534,0.077,1.069,0.12,1.604c0.109,1.408,0.218,2.815,0.338,4.234
			c0.12,1.495,0.251,3.001,0.382,4.519C555.327,1275.021,554.617,1279.943,554.759,1283.817z"/>
		<path style="fill:#233862;" d="M480.079,1628.166c-4.748,73.731-24.228,168.066-31.18,172.082
			c-13.816,7.988-38.961-0.011-51.74-1.877c-5.293-0.785-9.527-5.293-9.254-10.63c6.242-122.36-11.688-292.772-25.09-397.53
			c-0.349-2.728-0.699-5.401-1.037-8.031c-1.604-12.354-2.663-23.89-3.329-34.29c6.373-41.536,42.344-43.763,74.964,42.158
			C447.393,1423.334,481.159,1611.272,480.079,1628.166z"/>
		<path style="fill:#2B478B;" d="M556.108,1533.898c0.988,8.523,10.964,28.791,12.161,33.617
			c16.492,66.321,7.381,223.574-0.794,229.861c-12.649,9.732-38.63,5.107-51.54,4.934c-5.351-0.076-10.137-3.996-10.568-9.316
			c-10.14-125.293-52.158-297.383-79.179-398.617c-13.605-50.992-15.534-88.485-15.534-88.485s126.288-77.375,139.946-35.106
			C562.686,1308.188,548.49,1468.453,556.108,1533.898z"/>
		<g>
			<path style="fill:#FFA412;" d="M509.825,825.598c0,0-3.463-4.704-9.668-9.976c-0.983-0.849-2.041-1.706-3.166-2.554
				c-11.411-8.683-29.675-17.159-51.692-7.974c-5.966,2.488-10.927,5.866-15.046,9.779c-0.976,0.922-1.899,1.87-2.771,2.85
				c-19.09,21.18-17.474,54.395-17.474,54.395l110.155-1.178C520.521,840.188,509.825,825.598,509.825,825.598z"/>
			<g>
				<path style="fill:#E27F2B;" d="M489.253,871.258c-0.03-0.412-3.255-41.97,10.904-55.636c-0.983-0.849-0.749-0.7-1.873-1.549
					c-14.912,15.521-15.21,55.5-15.083,57.254L489.253,871.258z"/>
				<path style="fill:#E27F2B;" d="M447.975,871.711c-1.044-26.979-15.934-53.842-17.721-56.839
					c-0.976,0.922-1.16,1.104-2.032,2.084c2.583,4.546,12.306,30.555,13.235,54.825l-31.449,0.336c0,0,29.339,7.584,51.437,7.31
					c22.097-0.275,58.719-8.488,58.719-8.488L447.975,871.711z"/>
			</g>
		</g>
		<path style="fill:#2B478B;" d="M516.014,981.274c0,0-37.219,43.357-39.401,81.19h18.917c0,0,4.82-41.129,32.831-78.599
			L516.014,981.274z"/>
		<path style="fill:#2B478B;" d="M423.493,981.179c-26.661,40.347-29.826,81.282-29.826,81.282h-18.913
			c1.572-29.738,20.07-61.409,30.383-76.906h0.011C412.165,983.602,418.647,982.161,423.493,981.179z"/>
		<path style="fill:#FFA412;" d="M615.63,1215.53c-0.71-14.41-2.68-31.55-6.44-51.931c-0.01,9.82-0.65,19.11-2.09,27.511
			c4.68,37.3,2.87,65.81-5.44,81.95c-5.15,10.01-12.28,17.689-20.91,22.829c4.4-4.279,8.28-9.38,11.56-15.26
			c6.39-11.45,12.27-32.76,10.09-72.069c-0.44,1.119-0.9,2.199-1.39,3.25c0,0-1.62,0.279-4.74,0.6c1.28,28.74-1.79,50.75-9.13,63.92
			c-5.56,9.98-13.11,17.43-22.12,22.17c2.84-2.811,5.45-5.97,7.87-9.5c7.58-11.14,15.49-33.04,15.83-76.02
			c-1.89,0.109-3.99,0.199-6.29,0.26c-0.35,32.949-5.21,57.47-14.36,70.87c-0.42,0.62-0.86,1.239-1.31,1.84
			c6.94-11.91,13.58-33.5,13.92-72.681c-1.97,0.03-4.07,0.051-6.3,0.03c-0.33,32.92-5.21,57.42-14.35,70.811
			c-5.73,8.39-12.91,14.54-21.16,18.329c-2.52-0.43-5.1-1-7.69-1.689c-0.35-0.08-0.7-0.17-1.04-0.28c-0.04-0.01-0.07-0.02-0.11-0.03
			c-0.34-0.09-0.69-0.189-1.03-0.289c-3.16-0.92-6.23-1.971-9.2-3.15c-36.39-14.45-57.27-46.99-59.3-73.74
			c-1.44-19,0.1-47.29,3.94-78.06c7.56-60.64,24.03-130.94,44.06-158.88c0.34-0.47,0.66-0.93,1-1.37c0,0,0-0.01,0.01-0.01
			c0.42-0.55,0.84-1.09,1.27-1.59c0.74-0.89,1.47-1.72,2.22-2.48c0.01-0.01,0.01-0.01,0.02-0.02c1.57-1.61,3.14-2.88,4.67-3.82
			c0.42,0.25,0.88,0.56,1.38,0.96c1.3,0.99,2.85,2.5,4.64,4.78c0.01,0.02,0.03,0.03,0.04,0.05c2.09,0.45,4.26,0.97,6.48,1.53
			c1.03,0.28,2.09,0.55,3.15,0.86c0.07,0.01,0.13,0.02,0.2,0.05c0.25,0.05,0.5,0.13,0.74,0.2c1.3,0.36,2.6,0.74,3.91,1.13
			c0.74,0.231,1.49,0.46,2.23,0.69c0.88,0.28,1.75,0.56,2.62,0.85c0.95,0.32,1.9,0.64,2.84,0.97c1,0.35,2,0.71,2.98,1.08
			c-0.02-0.03-0.04-0.06-0.06-0.09c-11.79-18.58-20.17-22.91-25.61-22.65c-0.85,0.04-1.69,0.15-2.55,0.34
			c-0.99-0.26-1.9-0.37-2.73-0.37c-1.82,0.01-3.65,0.35-5.48,1.01c-5.6,0.54-11.49,4.08-17.59,10.59c-0.42,0.43-0.83,0.89-1.25,1.36
			c-3.39,3.82-6.78,8.47-10.16,13.8c-0.02,0.03-0.04,0.06-0.06,0.09c-32.25,50.971-62.32,164.2-64.11,217.2
			c-1.41,41.94,30.88,79.44,63.51,94.8c3.19,1.5,6.36,2.801,9.49,3.891c1.77,0.619,3.52,1.17,5.26,1.66
			c0.04,0.01,0.07,0.02,0.11,0.029c6.76,1.9,13.33,2.84,19.63,2.84c1.35,0,2.68-0.04,4-0.13c1.36,0.09,2.71,0.13,4.05,0.13
			c5.93,0,11.63-0.83,17.01-2.479c0.85-0.04,1.7-0.101,2.54-0.16c0.72-0.07,1.44-0.13,2.14-0.22c1.38-0.16,2.75-0.37,4.1-0.62
			c3.95,0.02,7.8-0.271,11.52-0.89c11.72-1.921,22.12-6.961,30.63-14.881c5.36-4.979,9.97-11.1,13.68-18.3
			C612.41,1266.53,617.23,1247.91,615.63,1215.53z M425.57,1211.77c1.58-46.909,27.23-146.539,55.59-200.33
			c-0.99,2.381-1.99,4.841-2.97,7.371c-26.8,56.76-49.31,147.029-50.84,192.649c-0.65,19.08,5.68,37.229,15.85,52.8
			C430.95,1247.07,425.02,1227.84,425.57,1211.77z M493.1,1299.13c-40.36-19-60.48-58.33-59.49-87.36
			c0.86-25.77,9-67.47,20.86-108.729c-9.25,44.6-14.41,89.84-13.14,117.63c1.6,35.19,26.6,64.45,54.52,79.69
			C494.93,1299.98,494.03,1299.57,493.1,1299.13z M447.57,1220.25c-1.84-40.24,10.88-121.26,29.69-179.38
			c2.11-6.5,4.29-12.72,6.54-18.57c0.84-1.78,1.68-3.51,2.52-5.22c-14.48,39.66-25.36,96.34-30.08,143.939
			c-2.42,24.61-3.19,46.791-1.97,62.95c2.2,29.04,20.3,53.3,42.54,68.73C465.8,1275.561,448.7,1245.061,447.57,1220.25z"/>
		<path style="fill:#D9935C;" d="M554.279,1161.276c-1.026,0.153-20.364,3.684-21.423,3.836
			c-32.211,4.723-75.548,6.803-80.062,7.011c-0.423-0.395-15.798-14.715-21.793-14.715c-6.079,0-23.601,6.385-25.389,11.296
			c-1.788,4.911-2.503,13.751,2.503,15.715c5.006,1.965,25.747,6.876,31.11,7.367c0.733,0.067,1.615,0.066,2.575-0.022
			c38.525,11.318,71.689,16.889,97.243,19.513c2.281,0.239,15.461,1.953,27.166,1.832
			C565.806,1190.867,558.317,1170.324,554.279,1161.276z"/>
	</g>
	<path style="fill:#D2E4FF;" d="M1257.963,702.218v-8.462h-18.521v-55.851h-15.328v55.851h-38.83v-55.851h-15.328v55.851h-42.215
		v-55.851h-15.329v55.851h-38.83v-55.851h-15.328v55.851h-20.31v8.462h20.31v27.192h-20.31v8.462h20.31v27.192h-20.31v8.462h20.31
		v27.192h-20.31v8.462h20.31v27.192h-20.31v8.462h20.31v27.192h-20.31v8.462h20.31v22.001h-20.31v8.462h20.31v27.192h-20.31v8.462
		h20.31v27.191h-20.31v8.462h20.31v27.192h-20.31v8.462h20.31v27.192h-20.31v8.462h20.31v27.192h-20.31v8.462h20.31v25.951h-20.31
		v8.462h20.31v27.191h-20.31v8.463h20.31v27.191h-20.31v8.463h20.31v27.191h-20.31v8.463h20.31v27.191h-20.31v8.462h20.31v27.192
		h-20.31v8.462h20.31v22.002h-20.31v8.462h20.31v27.192h-20.31v8.462h20.31v27.191h-20.31v8.463h20.31v27.191h-20.31v8.463h20.31
		v27.191h-20.31v8.463h20.31v27.191h-20.31v8.463h20.31v24.258h-20.31v8.462h20.31v27.192h-20.31v8.462h20.31v27.192h-20.31v8.462
		h20.31v27.192h-20.31v8.462h20.31v27.191h-20.31v8.462h20.31v27.192h-20.31v8.462h20.31v22.002h-20.31v8.463h20.31v27.191h-20.31
		v8.462h20.31v27.192h-20.31v8.462h220.018v-8.462h-18.521v-27.192h18.521v-8.462h-18.521v-27.191h18.521v-8.463h-18.521v-22.002
		h18.521v-8.462h-18.521v-27.192h18.521v-8.462h-18.521v-27.191h18.521v-8.462h-18.521v-27.192h18.521v-8.462h-18.521v-27.192
		h18.521v-8.462h-18.521v-27.192h18.521v-8.462h-18.521v-24.258h18.521v-8.463h-18.521v-27.191h18.521v-8.463h-18.521v-27.191
		h18.521v-8.463h-18.521v-27.191h18.521v-8.463h-18.521v-27.191h18.521v-8.462h-18.521v-27.192h18.521v-8.462h-18.521v-22.002
		h18.521v-8.462h-18.521v-27.192h18.521v-8.462h-18.521V1230.6h18.521v-8.463h-18.521v-27.191h18.521v-8.463h-18.521v-27.191h18.521
		v-8.463h-18.521v-27.191h18.521v-8.462h-18.521v-25.951h18.521v-8.462h-18.521v-27.192h18.521v-8.462h-18.521v-27.192h18.521
		v-8.462h-18.521v-27.192h18.521v-8.462h-18.521v-27.191h18.521v-8.462h-18.521v-27.192h18.521v-8.462h-18.521v-22.001h18.521
		v-8.462h-18.521v-27.192h18.521v-8.462h-18.521v-27.192h18.521v-8.462h-18.521v-27.192h18.521v-8.462h-18.521v-27.192h18.521
		v-8.462h-18.521v-27.192H1257.963z M1169.956,702.218v27.192h-42.215v-27.192H1169.956z M1127.741,1779.289v-27.191h42.215v27.191
		H1127.741z M1169.956,1787.751v27.192h-42.215v-27.192H1169.956z M1127.741,1743.635v-22.002h42.215v22.002H1127.741z
		 M1127.741,1713.171v-27.192h42.215v27.192H1127.741z M1127.741,1677.517v-27.191h42.215v27.191H1127.741z M1127.741,1641.863
		v-27.192h42.215v27.192H1127.741z M1127.741,1606.209v-27.192h42.215v27.192H1127.741z M1127.741,1570.555v-27.192h42.215v27.192
		H1127.741z M1127.741,1534.9v-24.258h42.215v24.258H1127.741z M1127.741,1502.18v-27.191h42.215v27.191H1127.741z
		 M1127.741,1466.525v-27.191h42.215v27.191H1127.741z M1127.741,1430.871v-27.191h42.215v27.191H1127.741z M1127.741,1395.217
		v-27.191h42.215v27.191H1127.741z M1127.741,1359.563v-27.192h42.215v27.192H1127.741z M1127.741,1323.909v-22.002h42.215v22.002
		H1127.741z M1127.741,1293.445v-27.192h42.215v27.192H1127.741z M1127.741,1257.791V1230.6h42.215v27.191H1127.741z
		 M1127.741,1222.137v-27.191h42.215v27.191H1127.741z M1127.741,1186.482v-27.191h42.215v27.191H1127.741z M1127.741,1150.828
		v-27.191h42.215v27.191H1127.741z M1127.741,1115.175v-25.951h42.215v25.951H1127.741z M1127.741,1080.762v-27.192h42.215v27.192
		H1127.741z M1127.741,1045.107v-27.192h42.215v27.192H1127.741z M1127.741,1009.453v-27.192h42.215v27.192H1127.741z
		 M1127.741,973.799v-27.191h42.215v27.191H1127.741z M1127.741,938.145v-27.192h42.215v27.192H1127.741z M1127.741,902.491v-22.001
		h42.215v22.001H1127.741z M1127.741,872.027v-27.192h42.215v27.192H1127.741z M1127.741,836.373v-27.192h42.215v27.192H1127.741z
		 M1127.741,800.719v-27.192h42.215v27.192H1127.741z M1127.741,765.065v-27.192h42.215v27.192H1127.741z M1073.583,702.218h38.83
		v27.192h-38.83V702.218z M1073.583,737.873h38.83v27.192h-38.83V737.873z M1073.583,773.526h38.83v27.192h-38.83V773.526z
		 M1073.583,809.181h38.83v27.192h-38.83V809.181z M1073.583,844.835h38.83v27.192h-38.83V844.835z M1073.583,880.489h38.83v22.001
		h-38.83V880.489z M1073.583,910.953h38.83v27.192h-38.83V910.953z M1073.583,946.607h38.83v27.191h-38.83V946.607z
		 M1073.583,982.261h38.83v27.192h-38.83V982.261z M1073.583,1017.915h38.83v27.192h-38.83V1017.915z M1073.583,1053.569h38.83
		v27.192h-38.83V1053.569z M1073.583,1089.224h38.83v25.951h-38.83V1089.224z M1073.583,1123.637h38.83v27.191h-38.83V1123.637z
		 M1073.583,1159.291h38.83v27.191h-38.83V1159.291z M1073.583,1194.945h38.83v27.191h-38.83V1194.945z M1073.583,1230.6h38.83
		v27.191h-38.83V1230.6z M1073.583,1266.253h38.83v27.192h-38.83V1266.253z M1073.583,1301.907h38.83v22.002h-38.83V1301.907z
		 M1073.583,1332.371h38.83v27.192h-38.83V1332.371z M1073.583,1368.025h38.83v27.191h-38.83V1368.025z M1073.583,1403.68h38.83
		v27.191h-38.83V1403.68z M1073.583,1439.334h38.83v27.191h-38.83V1439.334z M1073.583,1474.988h38.83v27.191h-38.83V1474.988z
		 M1073.583,1510.643h38.83v24.258h-38.83V1510.643z M1073.583,1543.362h38.83v27.192h-38.83V1543.362z M1073.583,1579.017h38.83
		v27.192h-38.83V1579.017z M1073.583,1614.671h38.83v27.192h-38.83V1614.671z M1073.583,1650.325h38.83v27.191h-38.83V1650.325z
		 M1073.583,1685.979h38.83v27.192h-38.83V1685.979z M1073.583,1721.633h38.83v22.002h-38.83V1721.633z M1073.583,1752.098h38.83
		v27.191h-38.83V1752.098z M1073.583,1787.751h38.83v27.192h-38.83V1787.751z M1224.114,1814.943h-38.83v-27.192h38.83V1814.943z
		 M1224.114,1779.289h-38.83v-27.191h38.83V1779.289z M1224.114,1743.635h-38.83v-22.002h38.83V1743.635z M1224.114,1713.171h-38.83
		v-27.192h38.83V1713.171z M1224.114,1677.517h-38.83v-27.191h38.83V1677.517z M1224.114,1641.863h-38.83v-27.192h38.83V1641.863z
		 M1224.114,1606.209h-38.83v-27.192h38.83V1606.209z M1224.114,1570.555h-38.83v-27.192h38.83V1570.555z M1224.114,1534.9h-38.83
		v-24.258h38.83V1534.9z M1224.114,1502.18h-38.83v-27.191h38.83V1502.18z M1224.114,1466.525h-38.83v-27.191h38.83V1466.525z
		 M1224.114,1430.871h-38.83v-27.191h38.83V1430.871z M1224.114,1395.217h-38.83v-27.191h38.83V1395.217z M1224.114,1359.563h-38.83
		v-27.192h38.83V1359.563z M1224.114,1323.909h-38.83v-22.002h38.83V1323.909z M1224.114,1293.445h-38.83v-27.192h38.83V1293.445z
		 M1224.114,1257.791h-38.83V1230.6h38.83V1257.791z M1224.114,1222.137h-38.83v-27.191h38.83V1222.137z M1224.114,1186.482h-38.83
		v-27.191h38.83V1186.482z M1224.114,1150.828h-38.83v-27.191h38.83V1150.828z M1224.114,1115.175h-38.83v-25.951h38.83V1115.175z
		 M1224.114,1080.762h-38.83v-27.192h38.83V1080.762z M1224.114,1045.107h-38.83v-27.192h38.83V1045.107z M1224.114,1009.453h-38.83
		v-27.192h38.83V1009.453z M1224.114,973.799h-38.83v-27.191h38.83V973.799z M1224.114,938.145h-38.83v-27.192h38.83V938.145z
		 M1224.114,902.491h-38.83v-22.001h38.83V902.491z M1224.114,872.027h-38.83v-27.192h38.83V872.027z M1224.114,836.373h-38.83
		v-27.192h38.83V836.373z M1224.114,800.719h-38.83v-27.192h38.83V800.719z M1224.114,765.065h-38.83v-27.192h38.83V765.065z
		 M1224.114,729.41h-38.83v-27.192h38.83V729.41z"/>
	<g>
		<rect x="1438.923" y="185.491" style="fill:#D2E4FF;" width="5.424" height="96.559"/>
		<rect x="1739.448" y="185.491" style="fill:#D2E4FF;" width="5.425" height="96.559"/>
		<rect x="1476.896" y="185.491" style="fill:#D2E4FF;" width="5.425" height="96.559"/>
		<rect x="1766.571" y="185.491" style="fill:#D2E4FF;" width="5.425" height="96.559"/>
	</g>
	<path style="fill:#2B478B;" d="M676.149,1608.758c-1.729-0.396-3.466,0.695-3.862,2.424l-29.281,127.881
		c-7.909,0.234-15.95,8.799-18.682,20.729l-2.789,12.183c-0.146,0.635-0.32,1.396-0.381,2.05l32.517,7.445
		c0.313-0.596,0.487-1.357,0.632-1.992l2.79-12.184c2.724-11.896-0.764-23.079-7.805-26.774l29.285-127.897
		C678.968,1610.893,677.877,1609.154,676.149,1608.758z"/>
	<path style="fill:#E69D43;" d="M591.053,1773.824c0,0,67.537-17.494,89.1-3.255c21.563,14.239-10.985,29.293-10.985,29.293
		L591.053,1773.824z"/>
	<g id="P297LW_1_">
		<path style="fill:#FFA412;" d="M1112.6,1002.648c-12.91,39.517-83.269,107.823-92.993,114.634c0,0-16.37-27.283-13.096-42.563
			c2.673-12.474,30.066-56.935,39.441-78.783c0.491-1.135,0.927-2.215,1.31-3.22c1.288-3.351,1.964-5.948,1.812-7.486
			c-0.47-4.748-15.388-16.294-32.729-29.99c-22.536-17.81-49.165-39.233-53.486-54.043c-7.639-26.192-34.104-129.901-34.104-129.901
			s65.753,14.22,84.306,30.59c18.553,16.37,98.22,152.787,101.494,187.71C1114.914,993.404,1114.193,997.813,1112.6,1002.648z"/>
		<path style="fill:#D9935C;" d="M1112.6,1002.648c-12.91,39.517-83.269,107.823-92.993,114.634c0,0-16.37-27.283-13.096-42.563
			c2.815-13.118,32.98-61.639,40.751-82.003C1058.95,990.687,1086.397,988.199,1112.6,1002.648z"/>
		<path style="fill:#D9935C;" d="M928.775,762.183l-0.044,8.054c0,0,2.193,25.188-28.822,28.866c-31.016,3.688-54.37-7.563-53.53-27
			c2.794-15.05,5.718-27.643,5.926-40.096c0.077-4.627-0.24-9.539-1.102-15.083l60.1-1.201l17.702,2.893L928.775,762.183z"/>
		<path style="fill:#CB7D45;" d="M929.004,718.617l-0.229,43.566c-6.384,2.968-13.587,4.78-21.663,4.78
			c-27.622,0-45.476-20.255-54.807-34.955c0.077-4.627-0.24-9.539-1.102-15.083l60.1-1.201L929.004,718.617z"/>
		<path style="fill:#233862;" d="M875.801,1830.195c0,0-2.917-22.725-9.673-36.235c-6.755-13.511-49.746-4.913-49.746-4.913
			s-8.598,7.369-10.441,41.762L875.801,1830.195z"/>
		<path style="fill:#233862;" d="M1022.272,1830.122c-10.102-6.166-4.354-52.163-4.354-52.163s47.071-37.656,53.542-8.826
			c6.473,28.831,44.717,41.775,66.487,45.307c15.028,2.437,19.681,10.76,21.122,15.683H1022.272z"/>
		<path style="fill:#2B478B;" d="M924.774,1490.46c1.916,10.558,3.132,19.217,3.455,25.426
			c4.375,85.352,71.846,280.505,83.915,285.056c18.673,7.047,48.079-7.932,63.463-12.833c6.375-2.036,10.677-8.466,9.258-14.988
			c-33.413-153.605-45.693-374.792-50.161-505.745c-2.257-65.959-13.579-111.523-13.579-111.523s-164.559-43.905-165.535,11.635
			C854.724,1216.635,910.099,1409.383,924.774,1490.46z"/>
		<path style="fill:#233862;" d="M924.774,1490.46l109.93-223.085c-2.257-65.959-13.579-111.523-13.579-111.523
			s-164.559-43.905-165.535,11.635C854.724,1216.635,910.099,1409.383,924.774,1490.46z"/>
		<path style="fill:#2B478B;" d="M961.387,1167.682l-86.993,630.496c0,0-38.203,9.212-67.915,1.842
			c0,0-25.468-335.326-23.346-416.395c2.123-81.068-18.279-216.924,4.656-231.906
			C810.724,1136.736,961.387,1167.682,961.387,1167.682z"/>
		<path style="fill:#FFA412;" d="M1025.86,1168.848c0,0-44.45,25.919-108.839,25.188c-25.101-0.283-46.938-2.16-65.469-4.922
			c-51.642-7.66-77.703-22.077-77.496-27.446c0.174-4.846,0.513-20.943,1.124-27.862c8.207-94.641,3.961-168.251,15.006-223.549
			c0.131-0.666,0.262-1.332,0.404-1.986c14.613-70.304,37.52-110.694,48.892-127.261c4.158-6.046,6.766-8.905,6.898-8.905
			c0,13.118,27.938,24.446,50.714,22.961c19.185-1.255,31.638-15.846,31.638-23.747l0.022-0.021
			c1.571,0,86.543,59.063,86.619,113.946C1015.667,1131.207,1030.575,1168.935,1025.86,1168.848z"/>
		<path style="fill:#E27F2B;" d="M851.672,1188.307c-0.044,0.272-0.077,0.545-0.12,0.807c-51.642-7.66-77.703-22.077-77.496-27.446
			c0.174-4.846,0.513-20.943,1.124-27.862c8.207-94.641,3.961-168.251,15.006-223.549
			C817.295,946.488,873.019,1041.38,851.672,1188.307z"/>
		<g>
			<path style="fill:#E9F3FE;" d="M993.132,1070.664l-6.941,23.093l-6.897,22.918l-299.572-90.111
				c-0.426,0.021-0.84-0.022-1.233-0.143c-0.415-0.12-0.797-0.316-1.157-0.567c-3.776-2.674-4.464-12.463-1.56-23.496
				c0.153-0.611,0.327-1.223,0.513-1.844c3.503-11.863,9.877-20.637,14.766-20.713c0.404-0.011,0.786,0.043,1.167,0.152
				c0.393,0.12,0.753,0.295,1.103,0.535L993.132,1070.664z"/>
			<path style="fill:#BED4F4;" d="M986.191,1093.757l-6.897,22.918l-299.572-90.111c-0.426,0.021-0.84-0.022-1.233-0.143
				c-0.415-0.12-0.797-0.316-1.157-0.567c-3.776-2.674-4.464-12.463-1.56-23.496c12.245,9.189,70.729,49.842,170.554,69.616
				C949.511,1092.414,981.444,1093.691,986.191,1093.757z"/>
			<path style="fill:#AFCDFB;" d="M993.706,1070.53c-5.009-1.479-12.143,7.726-15.934,20.56
				c-3.791,12.834-2.802,24.438,2.208,25.918c5.01,1.479,12.144-7.726,15.934-20.56
				C999.705,1083.613,998.716,1072.01,993.706,1070.53z"/>
		</g>
		<g>
			<path style="fill:#E9F3FE;" d="M695.491,972.025l-35.316-5.729c-0.382-0.185-0.753-0.316-1.167-0.382
				c-0.393-0.054-0.775-0.065-1.168,0c-4.845,0.72-10.007,10.247-11.928,22.471c-0.109,0.644-0.196,1.266-0.273,1.899
				c-0.688,5.413-0.589,10.422,0.131,14.428c0.786,4.289,2.303,7.41,4.376,8.578c0.044,0.032,0.087,0.054,0.12,0.076
				c0.393,0.207,0.797,0.349,1.222,0.414c0.404,0.065,0.819,0.055,1.244-0.021l308.793,50.104l3.831-23.617l3.853-23.802
				L695.491,972.025z"/>
			<path style="fill:#BED4F4;" d="M823.843,1036.959c-66.048-4.244-101.058-39.167-128.352-64.934l-35.316-5.729
				c-0.382-0.185-0.753-0.316-1.167-0.382c-0.393-0.054-0.775-0.065-1.168,0c-4.845,0.72-10.007,10.247-11.928,22.471
				c-0.109,0.644-0.196,1.266-0.273,1.899c-0.688,5.413-0.589,10.422,0.131,14.428c1.659,4.692,3.361,7.879,4.376,8.578
				c0.044,0.032,0.087,0.054,0.12,0.076c0.393,0.207,0.797,0.349,1.222,0.414c0.404,0.065,0.819,0.055,1.244-0.021l308.793,50.104
				l3.831-23.617C960.642,1040.801,928.819,1043.715,823.843,1036.959z"/>
			<path style="fill:#AFCDFB;" d="M969.767,1016.231c-5.16-0.811-11.027,9.249-13.104,22.469
				c-2.077,13.221,0.422,24.595,5.582,25.405c5.161,0.812,11.027-9.248,13.105-22.469
				C977.426,1028.416,974.927,1017.041,969.767,1016.231z"/>
		</g>
		<path style="fill:#D9935C;" d="M859.912,1107.1c-71.624-11.394-118.966-41.405-138.403-55.92
			c-6.635-4.955-10.018-8.108-10.018-8.108c-36.702-77.158,29.695-212.44,41.831-235.369c13.096-24.73,93.059-35.599,93.059-35.599
			s-12.769,37.563-17.756,86.532c-4.987,48.968-58.201,144.417-56.018,152.427c0.545,2.019,6.974,6.253,16.348,11.601
			c27.796,15.824,81.512,41.34,84.775,47.331C878.093,1077.994,859.912,1107.1,859.912,1107.1z"/>
		<path style="fill:#D9935C;" d="M873.732,1069.991c0,0,40.016-16.007,49.837-9.459c9.822,6.548,26.192,16.37,26.192,22.918
			c0,6.549-20.736,24.01-38.197,29.467c-17.461,5.456-51.656-5.821-51.656-5.821L873.732,1069.991z"/>
		<path style="fill:#FFA412;" d="M828.623,858.635c-4.987,48.968-58.201,144.417-56.018,152.427
			c0.545,2.019,6.974,6.253,16.348,11.601c-0.589,0.044-1.189,0.055-1.801,0.033c-41.864-1.845-60.809,21.313-65.644,28.483
			c-6.635-4.955-10.018-8.108-10.018-8.108c-36.702-77.158,29.695-212.44,41.831-235.369c13.096-24.73,93.059-35.599,93.059-35.599
			S833.61,809.667,828.623,858.635z"/>
		<path style="fill:#D9935C;" d="M932.512,739.787c0,0-76.973,15.549-85.918-32.535c-8.945-48.083-24.905-78.46,23.862-90.421
			c48.767-11.96,61.756,4.606,68.645,19.929C945.991,652.083,952.304,734.503,932.512,739.787z"/>
		<path style="fill:#233862;" d="M848.132,721.116c0,0-14.881-31.759-27.291-45.861c-12.41-14.103-5.641-84.615,47.948-82.358
			c53.589,2.257,72.769,40.615,73.333,47.949c0.564,7.333-42.872,1.692-54.718,11.282c-11.846,9.59-0.564,25.385-14.102,31.025
			c-13.539,5.641-24.256,5.641-22,18.051C853.559,713.614,848.132,721.116,848.132,721.116z"/>
		<path style="fill:#FFA412;" d="M864.67,560.155c-15.333,3.853-26.836,10.007-35.425,17.418c-0.851,0.731-1.681,1.484-2.477,2.248
			l-0.011,0.011c-31.779,30.306-19.098,78.543-19.098,78.543s4.231,12.187,7.141,16.916c2.91,4.729,45.108-0.728,47.291-9.822
			c2.183-9.094,10.55-18.553,10.55-18.553s44.481-3.057,47.473-3.274c10.049-0.729,38.728-10.706,38.728-10.706
			C958.514,630.12,942.373,540.642,864.67,560.155z"/>
		<path style="fill:#E27F2B;" d="M985.192,623.485c-5.337-1.304-14.436-2.756-29.429-3.306c0,0-12.589,10.429-37.618,18.376
			c-11.763-14.821-45.27-50.537-88.901-60.983c-0.131-0.032-0.251-0.066-0.382-0.098c-0.928,1.167-1.452,1.561-2.095,2.346
			l-0.011,0.011c-0.196,0.229-0.404,0.502-0.633,0.84c35.519,6.189,69.279,46.081,80.866,61.015
			c-9.943,2.445-21.381,4.376-34.35,5.229c0,0,77.742,1.45,113.273-17.259C988.621,628.231,988.165,624.211,985.192,623.485z"/>
		<path style="fill:#E27F2B;" d="M1064.352,976.5c-1.44,8.164-5.838,16.752-18.4,19.437c0.491-1.135,0.927-2.215,1.31-3.22
			c1.288-3.351,1.964-5.948,1.812-7.486c-0.47-4.748-15.388-16.294-32.729-29.99c-1.43-7.77-4.922-30.83-0.011-49.132
			C1022.335,883.736,1065.989,967.223,1064.352,976.5z"/>
		<path style="fill:#E27F2B;" d="M780.604,1017.152c0,0-53.476-4.365-70.937,26.737c0,0,1.492,10.487,11.841,7.29
			c0,0,45.236-30.917,67.445-28.517C788.953,1022.663,785.516,1017.243,780.604,1017.152z"/>
		<path style="fill:#E27F2B;" d="M1045.952,995.937c0,0,27.744,1.162,62.667,16.372c0,0,7.753-7.616,4.661-11.982
			C1110.188,995.962,1061.02,980.269,1045.952,995.937z"/>
	</g>
	<g>
		<path style="fill:#D9935C;" d="M1431.061,814.273c24.042-123.233,46.076-241.207,46.076-241.207s-68.438,10.368-97.904,34.923
			c-29.466,24.555-32.445,180.911-42.268,225.11c-1.932,8.676-3.667,22.689-5.162,39.757c-5.585,63.569,1.367,158.765,6.629,185.451
			c-0.347,2.565-2.526,15.164-14.127,39.331c0,0-6.002,18.553,33.286,46.382C1382.631,1161.756,1404.945,948.223,1431.061,814.273z"
			/>
		<path style="fill:#739AF0;" d="M1477.137,573.065c0,0-12.703,67.99-29.335,154.653c-5.271,27.501-10.946,56.869-16.741,86.554
			c-23.551,46.163-43.763,77.55-50.005,71.646c-12.735-12.027-35.097-13.511-49.252-13.063c1.495-17.068,3.23-31.081,5.162-39.757
			c0.775-3.493,1.506-7.683,2.216-12.452c8.239-55.615,12.91-190.045,40.052-212.658
			C1408.699,583.433,1477.137,573.065,1477.137,573.065z"/>
		<path style="fill:#4A75CB;" d="M1447.802,727.719c-5.271,27.501-10.946,56.869-16.741,86.554
			c-23.551,46.163-43.763,77.55-50.005,71.646c-12.735-12.027-35.097-13.511-49.252-13.063c1.495-17.068,3.23-31.081,5.162-39.757
			c0.775-3.493,1.506-7.683,2.216-12.452l70.613-170.456L1447.802,727.719z"/>
		<path style="fill:#D9935C;" d="M1574.869,571.328c0.52-23.793,0.128-52.203-3.087-76.204l-94.97,15.52c0,0,0,28.978,0.417,61.137
			c-0.057,0.008-0.093,0.013-0.093,0.013s-2.59,29.831,34.152,34.196C1548.03,610.356,1575.859,594.35,1574.869,571.328z"/>
		<path style="fill:#CB7D45;" d="M1476.548,516.502c0,0,22.372,45.836,48.019,45.836s49.656-43.108,49.656-43.108L1476.548,516.502z
			"/>
		<path style="fill:#233862;" d="M1539.846,1830.288c0,0,3.455-26.919,11.459-42.926c8.003-16.006,58.932-5.82,58.932-5.82
			s10.186,8.73,12.369,49.474L1539.846,1830.288z"/>
		<path style="fill:#233862;" d="M1366.329,1829.925c11.966-7.305,5.157-61.795,5.157-61.795s-55.763-44.61-63.43-10.456
			c-7.667,34.154-52.975,49.489-78.765,53.672c-17.803,2.887-23.315,12.747-25.022,18.579H1366.329z"/>
		<path style="fill:#233862;" d="M1583.914,467.738c0,0,63.397-99.957-58.337-106.572c0,0-45.659,5.375-55.996-4.961
			c0,0-35.416,53.827-2.341,111.534C1500.315,525.444,1583.914,467.738,1583.914,467.738z"/>
		<path style="fill:#D9935C;" d="M1479.632,519.898c9.228,7.261,36.285,14.471,44.107,15.315c0,0,40.121-8.947,47.415-13.346
			c11.295-6.847,10.567-20.706,11.146-39.973c0.694-22.806,2.993-40.717,0.446-53.865c-3.026-15.728-12.999-24.675-40.915-27.106
			c-51.251-4.449-72.603,8.385-73.496,25.568c-0.231,4.614-0.447,9.014-0.595,13.181
			C1465.69,493.256,1469.924,512.258,1479.632,519.898z"/>
		<path style="fill:#2B478B;" d="M1481.83,1425.006c-2.27,12.507-3.711,22.766-4.093,30.121
			c-5.184,101.112-85.113,332.301-99.41,337.692c-22.122,8.349-56.957-9.396-75.182-15.202c-7.552-2.412-12.648-10.03-10.968-17.756
			c39.583-181.97,54.13-444,59.423-599.133c2.674-78.141,16.086-132.117,16.086-132.117s194.946-52.014,196.102,13.783
			C1564.815,1100.617,1499.215,1328.957,1481.83,1425.006z"/>
		<path style="fill:#233862;" d="M1481.83,1425.006l-130.229-264.277c2.674-78.141,16.086-132.117,16.086-132.117
			s194.946-52.014,196.102,13.783C1564.815,1100.617,1499.215,1328.957,1481.83,1425.006z"/>
		<path style="fill:#2B478B;" d="M1438.456,1042.625l103.056,746.92c0,0,45.257,10.914,80.457,2.183
			c0,0,30.171-397.246,27.656-493.284c-2.514-96.037,21.654-256.979-5.516-274.729
			C1616.939,1005.966,1438.456,1042.625,1438.456,1042.625z"/>
		<path style="fill:#FFA412;" d="M1658.921,1023.711c0.339,8.654-6.515,15.868-15.158,15.999l-162.402,2.478l-119.283,1.822
			c-5.587,0.098,12.07-44.592,12.43-335.978c0.087-65.022,100.752-134.987,102.607-134.987l0.022,0.022
			c0,9.364,14.755,26.65,37.488,28.135c26.978,1.768,60.077-11.656,60.077-27.196c0-0.175,3.133,3.22,8.175,10.553
			c13.467,19.623,40.598,67.466,57.917,150.757c13.675,65.775,8.414,153.715,18.258,267.181
			C1659.772,1010.691,1658.714,1017.971,1658.921,1023.711z"/>
		<path style="fill:#739AF0;" d="M1652.93,1040.615c0,0-21.587,9.67-61.966,18.04c-30.022,6.231-70.425,11.754-120.058,12.06
			c-78.937,0.502-108.828-26.705-108.828-26.705c-5.587,0.098,12.07-44.592,12.43-335.978
			c0.087-65.022,100.752-134.987,102.607-134.987l0.022,0.022c0,0-2.586,86.586,23.605,112.047c0,0,36.735-28.375,84.393-109.133
			c13.468,19.622,38.339,76.044,55.658,159.335c3.515,16.948,5.784,35.359,7.378,55.298c4.594,57.47,3.568,127.643,10.88,211.883
			c0.721,8.196-0.338,15.476-0.131,21.216C1659.26,1032.365,1661.584,1040.484,1652.93,1040.615z"/>
		<path style="fill:#4A75CB;" d="M1652.93,1040.615c0,0-21.587,9.67-61.966,18.04c-12.704-19.371-28.714-54.338-30.929-109.439
			c-3.754-93.178,84.76-213.174,84.76-213.174l3.377,54.57c4.594,57.47,3.568,127.643,10.88,211.883
			c0.721,8.196-0.338,15.476-0.131,21.216C1659.26,1032.365,1661.584,1040.484,1652.93,1040.615z"/>
		
			<rect x="1473.464" y="752.649" transform="matrix(0.866 -0.5 0.5 0.866 -226.992 897.1339)" style="fill:#2B478B;" width="174.216" height="238.978"/>
		<path style="fill:#D9935C;" d="M1670.26,604.354c-18.477-13.969-61.879-23.878-83.236-28.091
			c-7.529-1.484-12.321-2.259-12.321-2.259c2.227,10.269,7.236,26.378,13.784,45.716c27.436,81.054,81.817,218.879,70.86,221.814
			c-8.916,2.39-20.32,4.496-32.871,6.33c-47.698,6.984-111.883,10.075-118.599,10.385c-0.527-0.493-23.389-21.804-32.29-21.804
			c-9.006,0-34.964,9.458-37.612,16.734c-2.649,7.275-3.708,20.372,3.708,23.282c7.417,2.91,38.142,10.186,46.088,10.914
			c1.087,0.1,2.397,0.099,3.822-0.034c57.074,16.778,106.202,25.014,144.061,28.907c52.82,5.424,83.716,2.412,83.716,2.412
			C1757.633,836.307,1695.252,623.245,1670.26,604.354z"/>
		<path style="fill:#739AF0;" d="M1719.37,918.659c0,0-30.896,3.012-83.716-2.412c2.913-14.351,5.62-42.377-9.179-68.383
			c12.551-1.833,23.955-3.939,32.871-6.33c10.957-2.936-43.425-140.761-70.86-221.814c-2.193-26.203-3.351-43.74-3.351-43.74
			l1.888,0.284c21.357,4.212,64.761,14.122,83.236,28.091C1695.252,623.245,1757.633,836.307,1719.37,918.659z"/>
		<path style="fill:#4A75CB;" d="M1500.739,685.113c0,0,73.483-32.376,74.574-34.923c1.092-2.546-3.638-22.19-8.73-28.011
			c0,0,35.286,3.274,37.47-1.091c2.183-4.365,3.818-40.283,3.818-40.283s-14.688-15.205-32.876-16.66
			c0,0-15.97,39.682-21.872,51.486C1537.48,646.916,1500.739,685.113,1500.739,685.113z"/>
		<path style="fill:#4A75CB;" d="M1483.278,621.088c0,0,4.729,37.833,17.461,64.025c0,0-38.379-26.738-41.653-35.468
			c-3.274-8.73,9.276-25.646,9.276-25.646s-22.918-0.546-23.464-8.185c-0.545-7.639,7.094-37.651,7.094-37.651
			s19.712-14.392,25.169-13.847L1483.278,621.088z"/>
		<g>
			<path style="fill:#FFA412;" d="M1607.677,412.053l-163.19,1.745c0,0-2.395-49.208,25.887-80.584
				c1.291-1.452,2.659-2.856,4.104-4.223c6.103-5.797,13.452-10.801,22.29-14.486c32.618-13.608,59.675-1.05,76.58,11.813
				c1.666,1.257,3.233,2.526,4.689,3.784c9.192,7.81,14.323,14.779,14.323,14.779S1608.207,366.495,1607.677,412.053z"/>
			<path style="fill:#E27F2B;" d="M1561.838,412.543c-0.447-6.627-3.328-63.059,16.494-82.191c-1.457-1.257-1.038-1.001-2.704-2.258
				c-21.136,21.998-22.818,77.538-22.729,84.545l-52.168,0.558c-1.547-39.967-23.605-79.765-26.253-84.206
				c-1.445,1.367-1.718,1.635-3.009,3.088c3.828,6.734,18.23,45.266,19.608,81.221l-46.59,0.498c0,0,43.465,11.236,76.201,10.83
				c32.736-0.407,86.989-12.575,86.989-12.575L1561.838,412.543z"/>
		</g>
	</g>
</g>
</svg>
